  0
SECTION
  2
HEADER
  9
$ACADVER
  1
AC1014
  9
$HANDSEED
  5
FFFF
  9
$MEASUREMENT
 70
     1
  0
ENDSEC
  0
SECTION
  2
TABLES
  0
TABLE
  2
VPORT
  5
8
330
0
100
AcDbSymbolTable
 70
     4
  0
VPORT
  5
2E
330
8
100
AcDbSymbolTableRecord
100
AcDbViewportTableRecord
  2
*ACTIVE
 70
     0
 10
0.0
 20
0.0
 11
1.0
 21
1.0
 12
210.0
 22
148.5
 13
0.0
 23
0.0
 14
10.0
 24
10.0
 15
10.0
 25
10.0
 16
0.0
 26
0.0
 36
1.0
 17
0.0
 27
0.0
 37
0.0
 40
341.0
 41
1.24
 42
50.0
 43
0.0
 44
0.0
 50
0.0
 51
0.0
 71
     0
 72
   100
 73
     1
 74
     3
 75
     0
 76
     0
 77
     0
 78
     0
  0
ENDTAB
  0
TABLE
  2
LTYPE
  5
5
330
0
100
AcDbSymbolTable
 70
     1
  0
LTYPE
  5
14
330
5
100
AcDbSymbolTableRecord
100
AcDbLinetypeTableRecord
  2
BYBLOCK
 70
     0
  3

 72
    65
 73
     0
 40
0.0
  0
LTYPE
  5
15
330
5
100
AcDbSymbolTableRecord
100
AcDbLinetypeTableRecord
  2
BYLAYER
 70
     0
  3

 72
    65
 73
     0
 40
0.0
  0
LTYPE
  5
16
330
5
100
AcDbSymbolTableRecord
100
AcDbLinetypeTableRecord
  2
CONTINUOUS
 70
     0
  3
Solid line
 72
    65
 73
     0
 40
0.0
  0
ENDTAB
  0
TABLE
  2
LAYER
  5
2
100
AcDbSymbolTable
 70
2
  0
LAYER
  5
50
100
AcDbSymbolTableRecord
100
AcDbLayerTableRecord
  2
0
 70
0
  6
CONTINUOUS
  0
LAYER
  5
51
100
AcDbSymbolTableRecord
100
AcDbLayerTableRecord
  2
Layer_1
 70
0
  6
CONTINUOUS
  0
ENDTAB
  0
TABLE
  2
STYLE
  5
3
330
0
100
AcDbSymbolTable
 70
     1
  0
STYLE
  5
11
330
3
100
AcDbSymbolTableRecord
100
AcDbTextStyleTableRecord
  2
STANDARD
 70
     0
 40
0.0
 41
1.0
 50
0.0
 71
     0
 42
2.5
  3
txt
  4

  0
ENDTAB
  0
TABLE
  2
VIEW
  5
6
330
0
100
AcDbSymbolTable
 70
     0
  0
ENDTAB
  0
TABLE
  2
UCS
  5
7
330
0
100
AcDbSymbolTable
 70
     0
  0
ENDTAB
  0
TABLE
  2
APPID
  5
9
330
0
100
AcDbSymbolTable
 70
     2
  0
APPID
  5
12
330
9
100
AcDbSymbolTableRecord
100
AcDbRegAppTableRecord
  2
ACAD
 70
     0
  0
ENDTAB
  0
TABLE
  2
DIMSTYLE
  5
A
330
0
100
AcDbSymbolTable
 70
     1
  0
DIMSTYLE
105
27
330
A
100
AcDbSymbolTableRecord
100
AcDbDimStyleTableRecord
  2
ISO-25
 70
     0
  3

  4

  5

  6

  7

 40
1.0
 41
2.5
 42
0.625
 43
3.75
 44
1.25
 45
0.0
 46
0.0
 47
0.0
 48
0.0
140
2.5
141
2.5
142
0.0
143
0.03937007874016
144
1.0
145
0.0
146
1.0
147
0.625
 71
     0
 72
     0
 73
     0
 74
     0
 75
     0
 76
     0
 77
     1
 78
     8
170
     0
171
     3
172
     1
173
     0
174
     0
175
     0
176
     0
177
     0
178
     0
270
     2
271
     2
272
     2
273
     2
274
     3
340
11
275
     0
280
     0
281
     0
282
     0
283
     0
284
     8
285
     0
286
     0
287
     3
288
     0
  0
ENDTAB
  0
TABLE
  2
BLOCK_RECORD
  5
1
330
0
100
AcDbSymbolTable
 70
     1
  0
BLOCK_RECORD
  5
1F
330
1
100
AcDbSymbolTableRecord
100
AcDbBlockTableRecord
  2
*MODEL_SPACE
  0
BLOCK_RECORD
  5
1B
330
1
100
AcDbSymbolTableRecord
100
AcDbBlockTableRecord
  2
*PAPER_SPACE
  0
ENDTAB
  0
ENDSEC
  0
SECTION
  2
BLOCKS
  0
BLOCK
  5
20
330
1F
100
AcDbEntity
  8
0
100
AcDbBlockBegin
  2
*MODEL_SPACE
 70
     0
 10
0.0
 20
0.0
 30
0.0
  3
*MODEL_SPACE
  1

  0
ENDBLK
  5
21
330
1F
100
AcDbEntity
  8
0
100
AcDbBlockEnd
  0
BLOCK
  5
1C
330
1B
100
AcDbEntity
 67
     1
  8
0
100
AcDbBlockBegin
  2
*PAPER_SPACE
  1

  0
ENDBLK
  5
1D
330
1B
100
AcDbEntity
 67
     1
  8
0
100
AcDbBlockEnd
  0
ENDSEC
  0
SECTION
  2
ENTITIES
  0
LWPOLYLINE
  5
100
100
AcDbEntity
  8
Layer_1
 62
7
100
AcDbPolyline
 90
93
 70
1
 10
77.590661
 20
56.770167
 30
0.0
 10
77.985716
 20
54.659802
 30
0.0
 10
78.692254
 20
49.039124
 30
0.0
 10
78.992329
 20
40.973749
 30
0.0
 10
78.168006
 20
31.529304
 30
0.0
 10
77.109836
 20
26.622935
 30
0.0
 10
75.501342
 20
21.771405
 30
0.0
 10
73.252773
 20
17.107929
 30
0.0
 10
70.274394
 20
12.765674
 30
0.0
 10
66.476462
 20
8.877894
 30
0.0
 10
61.769227
 20
5.577728
 30
0.0
 10
56.062956
 20
2.998443
 30
0.0
 10
49.267897
 20
1.273190
 30
0.0
 10
45.665413
 20
0.731945
 30
0.0
 10
42.250563
 20
0.358198
 30
0.0
 10
39.017324
 20
0.139504
 30
0.0
 10
35.959700
 20
0.063106
 30
0.0
 10
30.347260
 20
0.286993
 30
0.0
 10
25.365172
 20
0.929020
 30
0.0
 10
20.965371
 20
1.888322
 30
0.0
 10
17.099796
 20
3.064032
 30
0.0
 10
13.720381
 20
4.355311
 30
0.0
 10
10.779063
 20
5.661323
 30
0.0
 10
8.097509
 20
6.975632
 30
0.0
 10
5.841032
 20
8.191276
 30
0.0
 10
3.988819
 20
9.284576
 30
0.0
 10
2.520048
 20
10.232024
 30
0.0
 10
1.413911
 20
11.009942
 30
0.0
 10
0.649585
 20
11.594819
 30
0.0
 10
0.206253
 20
11.963063
 30
0.0
 10
0.063102
 20
12.091050
 30
0.0
 10
1.251346
 20
12.969947
 30
0.0
 10
2.450594
 20
13.713377
 30
0.0
 10
3.659468
 20
14.363955
 30
0.0
 10
4.876585
 20
14.964273
 30
0.0
 10
6.100566
 20
15.556911
 30
0.0
 10
7.330028
 20
16.184461
 30
0.0
 10
8.563594
 20
16.889542
 30
0.0
 10
9.799881
 20
17.714743
 30
0.0
 10
15.056423
 20
21.461243
 30
0.0
 10
20.503082
 20
25.118425
 30
0.0
 10
26.180494
 20
28.599826
 30
0.0
 10
32.129295
 20
31.818971
 30
0.0
 10
38.390124
 20
34.689397
 30
0.0
 10
45.003618
 20
37.124633
 30
0.0
 10
52.010414
 20
39.038204
 30
0.0
 10
59.451144
 20
40.343648
 30
0.0
 10
60.819933
 20
42.004348
 30
0.0
 10
62.300925
 20
45.603048
 30
0.0
 10
63.946653
 20
50.488360
 30
0.0
 10
64.847707
 20
53.209936
 30
0.0
 10
65.809645
 20
56.008898
 30
0.0
 10
66.839036
 20
58.803818
 30
0.0
 10
67.942440
 20
61.513275
 30
0.0
 10
69.126427
 20
64.055841
 30
0.0
 10
70.397565
 20
66.350096
 30
0.0
 10
71.762417
 20
68.314622
 30
0.0
 10
73.227554
 20
69.867985
 30
0.0
 10
74.799537
 20
70.928768
 30
0.0
 10
76.484937
 20
71.415544
 30
0.0
 10
78.316678
 20
71.497843
 30
0.0
 10
79.984273
 20
71.380411
 30
0.0
 10
82.855819
 20
70.636202
 30
0.0
 10
85.157146
 20
69.362623
 30
0.0
 10
86.945814
 20
67.739363
 30
0.0
 10
88.279396
 20
65.946114
 30
0.0
 10
89.215457
 20
64.162580
 30
0.0
 10
89.811569
 20
62.568442
 30
0.0
 10
90.125296
 20
61.343409
 30
0.0
 10
90.776273
 20
60.507193
 30
0.0
 10
91.770827
 20
59.575608
 30
0.0
 10
92.960712
 20
58.597497
 30
0.0
 10
94.197672
 20
57.621702
 30
0.0
 10
95.333467
 20
56.697071
 30
0.0
 10
96.219840
 20
55.872443
 30
0.0
 10
96.708553
 20
55.196665
 30
0.0
 10
96.651349
 20
54.718578
 30
0.0
 10
95.687591
 20
54.313798
 30
0.0
 10
94.078724
 20
54.436525
 30
0.0
 10
92.063195
 20
54.940805
 30
0.0
 10
89.879444
 20
55.680690
 30
0.0
 10
87.765904
 20
56.510220
 30
0.0
 10
85.961022
 20
57.283444
 30
0.0
 10
84.703234
 20
57.854414
 30
0.0
 10
84.230989
 20
58.077169
 30
0.0
 10
84.137740
 20
58.029499
 30
0.0
 10
83.851987
 20
57.902061
 30
0.0
 10
83.364730
 20
57.718208
 30
0.0
 10
82.666961
 20
57.501295
 30
0.0
 10
81.749677
 20
57.274673
 30
0.0
 10
80.603869
 20
57.061700
 30
0.0
 10
79.220534
 20
56.885720
 30
0.0
 10
77.590661
 20
56.770167
 30
0.0
  0
ENDSEC
  0
SECTION
  2
OBJECTS
  0
DICTIONARY
  5
C
330
0
100
AcDbDictionary
  3
ACAD_GROUP
350
D
  3
ACAD_MLINESTYLE
350
17
  0
DICTIONARY
  5
D
330
C
100
AcDbDictionary
  0
DICTIONARY
  5
1A
330
C
100
AcDbDictionary
  0
DICTIONARY
  5
17
330
C
100
AcDbDictionary
  3
STANDARD
350
18
  0
DICTIONARY
  5
19
330
C
100
AcDbDictionary
  0
ENDSEC
  0
EOF
