  0
SECTION
  2
HEADER
  9
$ACADVER
  1
AC1014
  9
$HANDSEED
  5
FFFF
  9
$MEASUREMENT
 70
     1
  0
ENDSEC
  0
SECTION
  2
TABLES
  0
TABLE
  2
VPORT
  5
8
330
0
100
AcDbSymbolTable
 70
     4
  0
VPORT
  5
2E
330
8
100
AcDbSymbolTableRecord
100
AcDbViewportTableRecord
  2
*ACTIVE
 70
     0
 10
0.0
 20
0.0
 11
1.0
 21
1.0
 12
210.0
 22
148.5
 13
0.0
 23
0.0
 14
10.0
 24
10.0
 15
10.0
 25
10.0
 16
0.0
 26
0.0
 36
1.0
 17
0.0
 27
0.0
 37
0.0
 40
341.0
 41
1.24
 42
50.0
 43
0.0
 44
0.0
 50
0.0
 51
0.0
 71
     0
 72
   100
 73
     1
 74
     3
 75
     0
 76
     0
 77
     0
 78
     0
  0
ENDTAB
  0
TABLE
  2
LTYPE
  5
5
330
0
100
AcDbSymbolTable
 70
     1
  0
LTYPE
  5
14
330
5
100
AcDbSymbolTableRecord
100
AcDbLinetypeTableRecord
  2
BYBLOCK
 70
     0
  3

 72
    65
 73
     0
 40
0.0
  0
LTYPE
  5
15
330
5
100
AcDbSymbolTableRecord
100
AcDbLinetypeTableRecord
  2
BYLAYER
 70
     0
  3

 72
    65
 73
     0
 40
0.0
  0
LTYPE
  5
16
330
5
100
AcDbSymbolTableRecord
100
AcDbLinetypeTableRecord
  2
CONTINUOUS
 70
     0
  3
Solid line
 72
    65
 73
     0
 40
0.0
  0
ENDTAB
  0
TABLE
  2
LAYER
  5
2
100
AcDbSymbolTable
 70
2
  0
LAYER
  5
50
100
AcDbSymbolTableRecord
100
AcDbLayerTableRecord
  2
0
 70
0
  6
CONTINUOUS
  0
LAYER
  5
51
100
AcDbSymbolTableRecord
100
AcDbLayerTableRecord
  2
Layer_1
 70
0
  6
CONTINUOUS
  0
ENDTAB
  0
TABLE
  2
STYLE
  5
3
330
0
100
AcDbSymbolTable
 70
     1
  0
STYLE
  5
11
330
3
100
AcDbSymbolTableRecord
100
AcDbTextStyleTableRecord
  2
STANDARD
 70
     0
 40
0.0
 41
1.0
 50
0.0
 71
     0
 42
2.5
  3
txt
  4

  0
ENDTAB
  0
TABLE
  2
VIEW
  5
6
330
0
100
AcDbSymbolTable
 70
     0
  0
ENDTAB
  0
TABLE
  2
UCS
  5
7
330
0
100
AcDbSymbolTable
 70
     0
  0
ENDTAB
  0
TABLE
  2
APPID
  5
9
330
0
100
AcDbSymbolTable
 70
     2
  0
APPID
  5
12
330
9
100
AcDbSymbolTableRecord
100
AcDbRegAppTableRecord
  2
ACAD
 70
     0
  0
ENDTAB
  0
TABLE
  2
DIMSTYLE
  5
A
330
0
100
AcDbSymbolTable
 70
     1
  0
DIMSTYLE
105
27
330
A
100
AcDbSymbolTableRecord
100
AcDbDimStyleTableRecord
  2
ISO-25
 70
     0
  3

  4

  5

  6

  7

 40
1.0
 41
2.5
 42
0.625
 43
3.75
 44
1.25
 45
0.0
 46
0.0
 47
0.0
 48
0.0
140
2.5
141
2.5
142
0.0
143
0.03937007874016
144
1.0
145
0.0
146
1.0
147
0.625
 71
     0
 72
     0
 73
     0
 74
     0
 75
     0
 76
     0
 77
     1
 78
     8
170
     0
171
     3
172
     1
173
     0
174
     0
175
     0
176
     0
177
     0
178
     0
270
     2
271
     2
272
     2
273
     2
274
     3
340
11
275
     0
280
     0
281
     0
282
     0
283
     0
284
     8
285
     0
286
     0
287
     3
288
     0
  0
ENDTAB
  0
TABLE
  2
BLOCK_RECORD
  5
1
330
0
100
AcDbSymbolTable
 70
     1
  0
BLOCK_RECORD
  5
1F
330
1
100
AcDbSymbolTableRecord
100
AcDbBlockTableRecord
  2
*MODEL_SPACE
  0
BLOCK_RECORD
  5
1B
330
1
100
AcDbSymbolTableRecord
100
AcDbBlockTableRecord
  2
*PAPER_SPACE
  0
ENDTAB
  0
ENDSEC
  0
SECTION
  2
BLOCKS
  0
BLOCK
  5
20
330
1F
100
AcDbEntity
  8
0
100
AcDbBlockBegin
  2
*MODEL_SPACE
 70
     0
 10
0.0
 20
0.0
 30
0.0
  3
*MODEL_SPACE
  1

  0
ENDBLK
  5
21
330
1F
100
AcDbEntity
  8
0
100
AcDbBlockEnd
  0
BLOCK
  5
1C
330
1B
100
AcDbEntity
 67
     1
  8
0
100
AcDbBlockBegin
  2
*PAPER_SPACE
  1

  0
ENDBLK
  5
1D
330
1B
100
AcDbEntity
 67
     1
  8
0
100
AcDbBlockEnd
  0
ENDSEC
  0
SECTION
  2
ENTITIES
  0
LWPOLYLINE
  5
100
100
AcDbEntity
  8
Layer_1
 62
7
100
AcDbPolyline
 90
465
 70
0
 10
79.942343
 20
51.617661
 30
0.0
 10
79.108512
 20
50.930264
 30
0.0
 10
78.233801
 20
50.376739
 30
0.0
 10
77.322587
 20
49.942966
 30
0.0
 10
76.379239
 20
49.614829
 30
0.0
 10
75.408130
 20
49.378214
 30
0.0
 10
74.413629
 20
49.218998
 30
0.0
 10
73.400113
 20
49.123065
 30
0.0
 10
72.371949
 20
49.076301
 30
0.0
 10
71.333510
 20
49.064589
 30
0.0
 10
70.289172
 20
49.073789
 30
0.0
 10
69.243301
 20
49.089819
 30
0.0
 10
68.200273
 20
49.098540
 30
0.0
 10
67.164458
 20
49.085840
 30
0.0
 10
66.140228
 20
49.037605
 30
0.0
 10
65.131956
 20
48.939717
 30
0.0
 10
64.144011
 20
48.778054
 30
0.0
 10
64.550919
 20
47.822452
 30
0.0
 10
65.065907
 20
47.013149
 30
0.0
 10
65.676529
 20
46.338534
 30
0.0
 10
66.370344
 20
45.786990
 30
0.0
 10
67.134912
 20
45.346904
 30
0.0
 10
67.957790
 20
45.006665
 30
0.0
 10
68.826535
 20
44.754655
 30
0.0
 10
69.728709
 20
44.579265
 30
0.0
 10
70.651864
 20
44.468876
 30
0.0
 10
71.583564
 20
44.411879
 30
0.0
 10
72.511364
 20
44.396667
 30
0.0
 10
73.422823
 20
44.411597
 30
0.0
 10
74.305499
 20
44.445082
 30
0.0
 10
75.146950
 20
44.485505
 30
0.0
 10
75.934734
 20
44.521248
 30
0.0
 10
76.656407
 20
44.540693
 30
0.0
 10
76.253645
 20
39.776957
 30
0.0
 10
75.654597
 20
35.026909
 30
0.0
 10
74.861316
 20
30.368800
 30
0.0
 10
73.875866
 20
25.880894
 30
0.0
 10
72.700303
 20
21.641445
 30
0.0
 10
71.336690
 20
17.728713
 30
0.0
 10
69.787081
 20
14.220962
 30
0.0
 10
68.053540
 20
11.196443
 30
0.0
 10
66.138123
 20
8.733405
 30
0.0
 10
64.042888
 20
6.910108
 30
0.0
 10
61.769899
 20
5.804841
 30
0.0
 10
59.321212
 20
5.495808
 30
0.0
 10
56.698885
 20
6.061325
 30
0.0
 10
53.904978
 20
7.579596
 30
0.0
 10
50.941551
 20
10.128937
 30
0.0
 10
47.810663
 20
13.787553
 30
0.0
 10
49.196515
 20
15.153370
 30
0.0
 10
50.709164
 20
16.685690
 30
0.0
 10
52.307668
 20
18.363959
 30
0.0
 10
53.951073
 20
20.167630
 30
0.0
 10
55.598444
 20
22.076149
 30
0.0
 10
57.208826
 20
24.068962
 30
0.0
 10
58.741282
 20
26.125521
 30
0.0
 10
60.154862
 20
28.225272
 30
0.0
 10
61.408620
 20
30.347662
 30
0.0
 10
62.461611
 20
32.472140
 30
0.0
 10
63.272893
 20
34.578156
 30
0.0
 10
63.801518
 20
36.645157
 30
0.0
 10
64.006538
 20
38.652590
 30
0.0
 10
63.847012
 20
40.579905
 30
0.0
 10
63.281992
 20
42.406546
 30
0.0
 10
62.270533
 20
44.111967
 30
0.0
 10
61.191301
 20
45.329637
 30
0.0
 10
60.020677
 20
46.299113
 30
0.0
 10
58.778473
 20
47.037488
 30
0.0
 10
57.484504
 20
47.561857
 30
0.0
 10
56.158576
 20
47.889314
 30
0.0
 10
54.820504
 20
48.036950
 30
0.0
 10
53.490097
 20
48.021851
 30
0.0
 10
52.187167
 20
47.861125
 30
0.0
 10
50.931527
 20
47.571859
 30
0.0
 10
49.742982
 20
47.171146
 30
0.0
 10
48.641350
 20
46.676080
 30
0.0
 10
47.646438
 20
46.103753
 30
0.0
 10
46.778057
 20
45.471259
 30
0.0
 10
46.056022
 20
44.795693
 30
0.0
 10
45.500140
 20
44.094145
 30
0.0
 10
45.130226
 20
43.383709
 30
0.0
 10
44.679032
 20
44.056629
 30
0.0
 10
44.101171
 20
44.686106
 30
0.0
 10
43.412097
 20
45.263016
 30
0.0
 10
42.627259
 20
45.778244
 30
0.0
 10
41.762107
 20
46.222670
 30
0.0
 10
40.832097
 20
46.587169
 30
0.0
 10
39.852676
 20
46.862629
 30
0.0
 10
38.839298
 20
47.039924
 30
0.0
 10
37.807415
 20
47.109937
 30
0.0
 10
36.772475
 20
47.063546
 30
0.0
 10
35.749930
 20
46.891636
 30
0.0
 10
34.755235
 20
46.585083
 30
0.0
 10
33.803838
 20
46.134766
 30
0.0
 10
32.911189
 20
45.531573
 30
0.0
 10
32.092745
 20
44.766375
 30
0.0
 10
31.363951
 20
43.830058
 30
0.0
 10
30.679712
 20
42.521701
 30
0.0
 10
30.240083
 20
41.058565
 30
0.0
 10
30.030702
 20
39.458560
 30
0.0
 10
30.037193
 20
37.739601
 30
0.0
 10
30.245222
 20
35.919595
 30
0.0
 10
30.640412
 20
34.016455
 30
0.0
 10
31.208404
 20
32.048090
 30
0.0
 10
31.934833
 20
30.032411
 30
0.0
 10
32.805336
 20
27.987327
 30
0.0
 10
33.805551
 20
25.930754
 30
0.0
 10
34.921119
 20
23.880596
 30
0.0
 10
36.137675
 20
21.854768
 30
0.0
 10
37.440856
 20
19.871178
 30
0.0
 10
38.816303
 20
17.947737
 30
0.0
 10
40.249650
 20
16.102360
 30
0.0
 10
41.726536
 20
14.352951
 30
0.0
 10
41.114475
 20
13.802223
 30
0.0
 10
40.434404
 20
13.223357
 30
0.0
 10
39.690427
 20
12.622534
 30
0.0
 10
38.886652
 20
12.005907
 30
0.0
 10
38.027187
 20
11.379599
 30
0.0
 10
37.116139
 20
10.749820
 30
0.0
 10
36.157611
 20
10.122694
 30
0.0
 10
35.155711
 20
9.504374
 30
0.0
 10
34.114548
 20
8.901039
 30
0.0
 10
33.038226
 20
8.318871
 30
0.0
 10
31.930854
 20
7.763966
 30
0.0
 10
30.796538
 20
7.242532
 30
0.0
 10
29.639381
 20
6.760722
 30
0.0
 10
28.463494
 20
6.324661
 30
0.0
 10
27.272982
 20
5.940528
 30
0.0
 10
26.071952
 20
5.614505
 30
0.0
 10
25.037602
 20
5.385735
 30
0.0
 10
24.001252
 20
5.202940
 30
0.0
 10
22.967700
 20
5.063776
 30
0.0
 10
21.941741
 20
4.965817
 30
0.0
 10
20.928171
 20
4.906748
 30
0.0
 10
19.931788
 20
4.884170
 30
0.0
 10
18.957385
 20
4.895741
 30
0.0
 10
18.009761
 20
4.939034
 30
0.0
 10
17.064915
 20
5.023588
 30
0.0
 10
16.115300
 20
5.152140
 30
0.0
 10
15.190397
 20
5.312132
 30
0.0
 10
14.319684
 20
5.490976
 30
0.0
 10
13.507957
 20
5.686302
 30
0.0
 10
12.792923
 20
5.882193
 30
0.0
 10
12.236971
 20
6.052429
 30
0.0
 10
11.968312
 20
6.143671
 30
0.0
 10
11.810470
 20
6.237200
 30
0.0
 10
11.468769
 20
6.462357
 30
0.0
 10
11.017525
 20
6.786828
 30
0.0
 10
10.498149
 20
7.191958
 30
0.0
 10
9.939706
 20
7.664200
 30
0.0
 10
9.354809
 20
8.196810
 30
0.0
 10
8.768410
 20
8.777877
 30
0.0
 10
8.205464
 20
9.395549
 30
0.0
 10
7.672410
 20
10.045619
 30
0.0
 10
7.167462
 20
10.727243
 30
0.0
 10
6.703233
 20
11.433673
 30
0.0
 10
6.292333
 20
12.158137
 30
0.0
 10
5.947375
 20
12.893863
 30
0.0
 10
5.680970
 20
13.634103
 30
0.0
 10
5.505730
 20
14.372030
 30
0.0
 10
5.434267
 20
15.100948
 30
0.0
 10
5.465518
 20
16.176801
 30
0.0
 10
5.603458
 20
17.245001
 30
0.0
 10
5.845658
 20
18.294428
 30
0.0
 10
6.189691
 20
19.313952
 30
0.0
 10
6.633130
 20
20.292454
 30
0.0
 10
7.173545
 20
21.218803
 30
0.0
 10
7.808509
 20
22.081881
 30
0.0
 10
8.535595
 20
22.870559
 30
0.0
 10
9.352375
 20
23.573716
 30
0.0
 10
10.256420
 20
24.180226
 30
0.0
 10
11.245303
 20
24.678963
 30
0.0
 10
12.316596
 20
25.058806
 30
0.0
 10
13.467871
 20
25.308629
 30
0.0
 10
14.696700
 20
25.417304
 30
0.0
 10
16.000655
 20
25.373715
 30
0.0
 10
17.377310
 20
25.166731
 30
0.0
 10
17.831457
 20
25.247000
 30
0.0
 10
18.237888
 20
25.365153
 30
0.0
 10
18.597914
 20
25.520761
 30
0.0
 10
18.912848
 20
25.713398
 30
0.0
 10
19.184002
 20
25.942638
 30
0.0
 10
19.412686
 20
26.208060
 30
0.0
 10
19.600215
 20
26.509233
 30
0.0
 10
19.747898
 20
26.845733
 30
0.0
 10
19.857050
 20
27.217134
 30
0.0
 10
19.928981
 20
27.623012
 30
0.0
 10
19.965003
 20
28.062940
 30
0.0
 10
19.966442
 20
28.536492
 30
0.0
 10
19.934584
 20
29.043242
 30
0.0
 10
19.870753
 20
29.582766
 30
0.0
 10
19.776262
 20
30.154639
 30
0.0
 10
19.652422
 20
30.758433
 30
0.0
 10
17.247694
 20
30.899194
 30
0.0
 10
15.116127
 20
31.165124
 30
0.0
 10
13.246714
 20
31.544958
 30
0.0
 10
11.628448
 20
32.027429
 30
0.0
 10
10.250323
 20
32.601274
 30
0.0
 10
9.101333
 20
33.255222
 30
0.0
 10
8.170470
 20
33.978016
 30
0.0
 10
7.446728
 20
34.758380
 30
0.0
 10
6.919101
 20
35.585057
 30
0.0
 10
6.576583
 20
36.446775
 30
0.0
 10
6.408166
 20
37.332272
 30
0.0
 10
6.402843
 20
38.230278
 30
0.0
 10
6.549610
 20
39.129534
 30
0.0
 10
6.837460
 20
40.018768
 30
0.0
 10
7.255385
 20
40.886717
 30
0.0
 10
7.792379
 20
41.722115
 30
0.0
 10
8.473086
 20
42.552748
 30
0.0
 10
9.260397
 20
43.321891
 30
0.0
 10
10.141532
 20
44.016466
 30
0.0
 10
11.103709
 20
44.623382
 30
0.0
 10
12.134148
 20
45.129564
 30
0.0
 10
13.220067
 20
45.521929
 30
0.0
 10
14.348685
 20
45.787396
 30
0.0
 10
15.507223
 20
45.912878
 30
0.0
 10
16.682898
 20
45.885305
 30
0.0
 10
17.862930
 20
45.691579
 30
0.0
 10
19.034538
 20
45.318625
 30
0.0
 10
20.184941
 20
44.753362
 30
0.0
 10
21.301358
 20
43.982709
 30
0.0
 10
22.371009
 20
42.993582
 30
0.0
 10
23.381112
 20
41.772901
 30
0.0
 10
24.318887
 20
40.307580
 30
0.0
 10
24.787550
 20
40.451514
 30
0.0
 10
25.230947
 20
40.609030
 30
0.0
 10
25.643927
 20
40.781081
 30
0.0
 10
26.021338
 20
40.968607
 30
0.0
 10
26.358028
 20
41.172557
 30
0.0
 10
26.648849
 20
41.393879
 30
0.0
 10
26.888647
 20
41.633514
 30
0.0
 10
27.072272
 20
41.892410
 30
0.0
 10
27.194573
 20
42.171511
 30
0.0
 10
27.250400
 20
42.471767
 30
0.0
 10
27.234601
 20
42.794122
 30
0.0
 10
27.142025
 20
43.139519
 30
0.0
 10
26.967520
 20
43.508909
 30
0.0
 10
26.705936
 20
43.903232
 30
0.0
 10
26.352122
 20
44.323439
 30
0.0
 10
25.900927
 20
44.770473
 30
0.0
 10
24.396214
 20
46.194637
 30
0.0
 10
22.880168
 20
47.351807
 30
0.0
 10
21.360868
 20
48.256115
 30
0.0
 10
19.846395
 20
48.921691
 30
0.0
 10
18.344827
 20
49.362660
 30
0.0
 10
16.864244
 20
49.593151
 30
0.0
 10
15.412727
 20
49.627300
 30
0.0
 10
13.998355
 20
49.479230
 30
0.0
 10
12.629208
 20
49.163067
 30
0.0
 10
11.313364
 20
48.692950
 30
0.0
 10
10.058905
 20
48.082997
 30
0.0
 10
8.873909
 20
47.347345
 30
0.0
 10
7.766457
 20
46.500123
 30
0.0
 10
6.744628
 20
45.555454
 30
0.0
 10
5.816501
 20
44.527471
 30
0.0
 10
4.990157
 20
43.430304
 30
0.0
 10
4.326529
 20
42.371545
 30
0.0
 10
3.762256
 20
41.277163
 30
0.0
 10
3.303639
 20
40.158177
 30
0.0
 10
2.956976
 20
39.025600
 30
0.0
 10
2.728565
 20
37.890446
 30
0.0
 10
2.624705
 20
36.763730
 30
0.0
 10
2.651694
 20
35.656468
 30
0.0
 10
2.815833
 20
34.579671
 30
0.0
 10
3.123418
 20
33.544356
 30
0.0
 10
3.580749
 20
32.561540
 30
0.0
 10
4.194126
 20
31.642232
 30
0.0
 10
4.969845
 20
30.797451
 30
0.0
 10
5.914206
 20
30.038211
 30
0.0
 10
7.033508
 20
29.375522
 30
0.0
 10
8.334050
 20
28.820405
 30
0.0
 10
9.822129
 20
28.383872
 30
0.0
 10
9.445687
 20
28.393355
 30
0.0
 10
8.988605
 20
28.295488
 30
0.0
 10
8.461768
 20
28.095684
 30
0.0
 10
7.876059
 20
27.799333
 30
0.0
 10
7.242364
 20
27.411834
 30
0.0
 10
6.571567
 20
26.938587
 30
0.0
 10
5.874553
 20
26.384985
 30
0.0
 10
5.162207
 20
25.756425
 30
0.0
 10
4.445412
 20
25.058306
 30
0.0
 10
3.735053
 20
24.296024
 30
0.0
 10
3.042016
 20
23.474972
 30
0.0
 10
2.377185
 20
22.600554
 30
0.0
 10
1.751443
 20
21.678162
 30
0.0
 10
1.175677
 20
20.713193
 30
0.0
 10
0.660770
 20
19.711045
 30
0.0
 10
0.217607
 20
18.677112
 30
0.0
 10
0.003352
 20
18.010755
 30
0.0
 10
-0.154789
 20
17.281879
 30
0.0
 10
-0.259687
 20
16.501004
 30
0.0
 10
-0.314213
 20
15.678651
 30
0.0
 10
-0.321238
 20
14.825338
 30
0.0
 10
-0.283632
 20
13.951592
 30
0.0
 10
-0.204267
 20
13.067898
 30
0.0
 10
-0.086012
 20
12.184824
 30
0.0
 10
0.086474
 20
11.288063
 30
0.0
 10
0.318125
 20
10.377473
 30
0.0
 10
0.590461
 20
9.484861
 30
0.0
 10
0.884999
 20
8.642004
 30
0.0
 10
1.198870
 20
7.859430
 30
0.0
 10
1.508387
 20
7.176029
 30
0.0
 10
1.774256
 20
6.651914
 30
0.0
 10
1.915552
 20
6.403982
 30
0.0
 10
2.040087
 20
6.259823
 30
0.0
 10
2.333316
 20
5.942323
 30
0.0
 10
2.752731
 20
5.517550
 30
0.0
 10
3.276640
 20
5.023266
 30
0.0
 10
3.891152
 20
4.486564
 30
0.0
 10
4.592788
 20
3.920342
 30
0.0
 10
5.370260
 20
3.348221
 30
0.0
 10
6.212282
 20
2.793711
 30
0.0
 10
7.119275
 20
2.264403
 30
0.0
 10
8.096863
 20
1.760862
 30
0.0
 10
9.141566
 20
1.296014
 30
0.0
 10
10.249903
 20
0.882728
 30
0.0
 10
11.418391
 20
0.533957
 30
0.0
 10
12.643550
 20
0.262629
 30
0.0
 10
13.921897
 20
0.081668
 30
0.0
 10
15.249953
 20
0.004000
 30
0.0
 10
17.040530
 20
0.026014
 30
0.0
 10
18.878280
 20
0.147228
 30
0.0
 10
20.753863
 20
0.365358
 30
0.0
 10
22.657937
 20
0.678145
 30
0.0
 10
24.581160
 20
1.083303
 30
0.0
 10
26.514191
 20
1.578575
 30
0.0
 10
28.447688
 20
2.161702
 30
0.0
 10
30.372311
 20
2.830371
 30
0.0
 10
32.278720
 20
3.582352
 30
0.0
 10
34.157566
 20
4.415331
 30
0.0
 10
35.999518
 20
5.327050
 30
0.0
 10
37.795224
 20
6.315251
 30
0.0
 10
39.535350
 20
7.377677
 30
0.0
 10
41.210553
 20
8.511984
 30
0.0
 10
42.811490
 20
9.715973
 30
0.0
 10
44.328821
 20
10.987356
 30
0.0
 10
46.914183
 20
7.833240
 30
0.0
 10
49.414217
 20
5.242271
 30
0.0
 10
51.831501
 20
3.203102
 30
0.0
 10
54.168617
 20
1.704418
 30
0.0
 10
56.428148
 20
0.734815
 30
0.0
 10
58.612666
 20
0.282949
 30
0.0
 10
60.724761
 20
0.337474
 30
0.0
 10
62.767008
 20
0.887017
 30
0.0
 10
64.741988
 20
1.920233
 30
0.0
 10
66.652280
 20
3.425804
 30
0.0
 10
68.500469
 20
5.392300
 30
0.0
 10
70.289131
 20
7.808404
 30
0.0
 10
72.020849
 20
10.662772
 30
0.0
 10
73.698200
 20
13.944057
 30
0.0
 10
75.323769
 20
17.640852
 30
0.0
 10
76.900133
 20
21.741840
 30
0.0
 10
77.949477
 20
16.097291
 30
0.0
 10
79.096287
 20
11.448027
 30
0.0
 10
80.326957
 20
7.720436
 30
0.0
 10
81.627889
 20
4.840838
 30
0.0
 10
82.985473
 20
2.735629
 30
0.0
 10
84.386111
 20
1.331122
 30
0.0
 10
85.816199
 20
0.553713
 30
0.0
 10
87.262131
 20
0.329770
 30
0.0
 10
88.710309
 20
0.585632
 30
0.0
 10
90.147125
 20
1.247641
 30
0.0
 10
91.558978
 20
2.242192
 30
0.0
 10
92.932266
 20
3.495626
 30
0.0
 10
94.253382
 20
4.934310
 30
0.0
 10
95.508729
 20
6.484613
 30
0.0
 10
96.684698
 20
8.072847
 30
0.0
 10
97.767689
 20
9.625436
 30
0.0
 10
98.680641
 20
10.840628
 30
0.0
 10
99.361031
 20
12.015548
 30
0.0
 10
99.830011
 20
13.133091
 30
0.0
 10
100.108737
 20
14.176072
 30
0.0
 10
100.218366
 20
15.127324
 30
0.0
 10
100.180049
 20
15.969721
 30
0.0
 10
100.014943
 20
16.686097
 30
0.0
 10
99.744204
 20
17.259296
 30
0.0
 10
99.388988
 20
17.672170
 30
0.0
 10
98.970450
 20
17.907560
 30
0.0
 10
98.509742
 20
17.948316
 30
0.0
 10
98.028022
 20
17.777284
 30
0.0
 10
97.546447
 20
17.377304
 30
0.0
 10
97.086168
 20
16.731230
 30
0.0
 10
96.668341
 20
15.821904
 30
0.0
 10
96.314121
 20
14.632171
 30
0.0
 10
95.308035
 20
12.025312
 30
0.0
 10
94.233897
 20
9.918241
 30
0.0
 10
93.104966
 20
8.293488
 30
0.0
 10
91.934511
 20
7.133526
 30
0.0
 10
90.735795
 20
6.420915
 30
0.0
 10
89.522082
 20
6.138129
 30
0.0
 10
88.306638
 20
6.267697
 30
0.0
 10
87.102726
 20
6.792122
 30
0.0
 10
85.923610
 20
7.693935
 30
0.0
 10
84.782560
 20
8.955638
 30
0.0
 10
83.692835
 20
10.559761
 30
0.0
 10
82.667700
 20
12.488778
 30
0.0
 10
81.720424
 20
14.725248
 30
0.0
 10
80.864266
 20
17.251662
 30
0.0
 10
80.112496
 20
20.050530
 30
0.0
 10
79.478374
 20
23.104372
 30
0.0
 10
81.131821
 20
24.034994
 30
0.0
 10
82.564011
 20
25.029376
 30
0.0
 10
83.802289
 20
26.084545
 30
0.0
 10
84.873989
 20
27.197548
 30
0.0
 10
85.806451
 20
28.365417
 30
0.0
 10
86.627009
 20
29.585190
 30
0.0
 10
87.363005
 20
30.853903
 30
0.0
 10
88.041775
 20
32.168596
 30
0.0
 10
88.690658
 20
33.526302
 30
0.0
 10
89.336989
 20
34.924059
 30
0.0
 10
90.008108
 20
36.358905
 30
0.0
 10
90.731353
 20
37.827877
 30
0.0
 10
91.534061
 20
39.328012
 30
0.0
 10
92.443570
 20
40.856344
 30
0.0
 10
93.487216
 20
42.409916
 30
0.0
 10
94.692342
 20
43.985760
 30
0.0
 10
94.930622
 20
44.410679
 30
0.0
 10
95.050171
 20
44.774802
 30
0.0
 10
95.065299
 20
45.085213
 30
0.0
 10
94.990295
 20
45.348986
 30
0.0
 10
94.839470
 20
45.573206
 30
0.0
 10
94.627126
 20
45.764948
 30
0.0
 10
94.367566
 20
45.931295
 30
0.0
 10
94.075094
 20
46.079327
 30
0.0
 10
93.764011
 20
46.216123
 30
0.0
 10
93.448620
 20
46.348761
 30
0.0
 10
93.143227
 20
46.484321
 30
0.0
 10
92.862134
 20
46.629886
 30
0.0
 10
92.619640
 20
46.792530
 30
0.0
 10
92.430051
 20
46.979339
 30
0.0
 10
92.307671
 20
47.197390
 30
0.0
 10
92.266803
 20
47.453763
 30
0.0
 10
91.066672
 20
46.373611
 30
0.0
 10
90.073569
 20
45.249447
 30
0.0
 10
89.253863
 20
44.087992
 30
0.0
 10
88.573928
 20
42.895970
 30
0.0
 10
88.000133
 20
41.680103
 30
0.0
 10
87.498850
 20
40.447111
 30
0.0
 10
87.036454
 20
39.203722
 30
0.0
 10
86.579314
 20
37.956652
 30
0.0
 10
86.093804
 20
36.712625
 30
0.0
 10
85.546296
 20
35.478366
 30
0.0
 10
84.903159
 20
34.260594
 30
0.0
 10
84.130765
 20
33.066032
 30
0.0
 10
83.195489
 20
31.901405
 30
0.0
 10
82.063702
 20
30.773431
 30
0.0
 10
80.701776
 20
29.688836
 30
0.0
 10
79.076080
 20
28.654340
 30
0.0
 10
79.208440
 20
29.994912
 30
0.0
 10
79.402959
 20
31.396397
 30
0.0
 10
79.644078
 20
32.848441
 30
0.0
 10
79.916250
 20
34.340697
 30
0.0
 10
80.203917
 20
35.862820
 30
0.0
 10
80.491524
 20
37.404459
 30
0.0
 10
80.763515
 20
38.955267
 30
0.0
 10
81.004338
 20
40.504899
 30
0.0
 10
81.198442
 20
42.043001
 30
0.0
 10
81.330265
 20
43.559226
 30
0.0
 10
81.384257
 20
45.043230
 30
0.0
 10
81.344865
 20
46.484663
 30
0.0
 10
81.196532
 20
47.873173
 30
0.0
 10
80.923705
 20
49.198418
 30
0.0
 10
80.510828
 20
50.450046
 30
0.0
 10
79.942343
 20
51.617661
 30
0.0
  0
LWPOLYLINE
  5
101
100
AcDbEntity
  8
Layer_1
 62
7
100
AcDbPolyline
 90
81
 70
0
 10
54.148194
 20
43.283896
 30
0.0
 10
54.376630
 20
43.283049
 30
0.0
 10
54.607099
 20
43.273623
 30
0.0
 10
54.839560
 20
43.255250
 30
0.0
 10
55.073979
 20
43.227705
 30
0.0
 10
55.310326
 20
43.190754
 30
0.0
 10
55.548561
 20
43.144165
 30
0.0
 10
55.788656
 20
43.087709
 30
0.0
 10
56.030568
 20
43.021153
 30
0.0
 10
56.274270
 20
42.944270
 30
0.0
 10
56.519724
 20
42.856823
 30
0.0
 10
56.766895
 20
42.758584
 30
0.0
 10
57.015747
 20
42.649325
 30
0.0
 10
57.266250
 20
42.528810
 30
0.0
 10
57.518365
 20
42.396809
 30
0.0
 10
57.772060
 20
42.253093
 30
0.0
 10
58.027299
 20
42.097428
 30
0.0
 10
59.075783
 20
41.174189
 30
0.0
 10
59.722842
 20
40.017433
 30
0.0
 10
60.001813
 20
38.658189
 30
0.0
 10
59.946032
 20
37.127489
 30
0.0
 10
59.588832
 20
35.456361
 30
0.0
 10
58.963549
 20
33.675835
 30
0.0
 10
58.103519
 20
31.816942
 30
0.0
 10
57.042078
 20
29.910708
 30
0.0
 10
55.812557
 20
27.988165
 30
0.0
 10
54.448298
 20
26.080343
 30
0.0
 10
52.982628
 20
24.218272
 30
0.0
 10
51.448888
 20
22.432979
 30
0.0
 10
49.880413
 20
20.755496
 30
0.0
 10
48.310538
 20
19.216851
 30
0.0
 10
46.772593
 20
17.848076
 30
0.0
 10
45.299921
 20
16.680198
 30
0.0
 10
43.836240
 20
18.405996
 30
0.0
 10
42.438639
 20
20.213208
 30
0.0
 10
41.118175
 20
22.079663
 30
0.0
 10
39.885911
 20
23.983184
 30
0.0
 10
38.752901
 20
25.901598
 30
0.0
 10
37.730207
 20
27.812730
 30
0.0
 10
36.828888
 20
29.694410
 30
0.0
 10
36.060002
 20
31.524455
 30
0.0
 10
35.434609
 20
33.280698
 30
0.0
 10
34.963766
 20
34.940961
 30
0.0
 10
34.658537
 20
36.483071
 30
0.0
 10
34.529976
 20
37.884852
 30
0.0
 10
34.589144
 20
39.124132
 30
0.0
 10
34.847101
 20
40.178735
 30
0.0
 10
35.314901
 20
41.026485
 30
0.0
 10
36.003611
 20
41.645209
 30
0.0
 10
36.793943
 20
42.053136
 30
0.0
 10
37.559121
 20
42.292872
 30
0.0
 10
38.298967
 20
42.378806
 30
0.0
 10
39.013299
 20
42.325331
 30
0.0
 10
39.701938
 20
42.146839
 30
0.0
 10
40.364704
 20
41.857722
 30
0.0
 10
41.001414
 20
41.472371
 30
0.0
 10
41.611889
 20
41.005174
 30
0.0
 10
42.195948
 20
40.470527
 30
0.0
 10
42.753413
 20
39.882822
 30
0.0
 10
43.284100
 20
39.256446
 30
0.0
 10
43.787833
 20
38.605797
 30
0.0
 10
44.264428
 20
37.945259
 30
0.0
 10
44.713706
 20
37.289231
 30
0.0
 10
45.135487
 20
36.652100
 30
0.0
 10
45.529590
 20
36.048257
 30
0.0
 10
45.652061
 20
36.381073
 30
0.0
 10
45.840577
 20
36.795799
 30
0.0
 10
46.092875
 20
37.278294
 30
0.0
 10
46.406695
 20
37.814415
 30
0.0
 10
46.779778
 20
38.390024
 30
0.0
 10
47.209860
 20
38.990980
 30
0.0
 10
47.694681
 20
39.603142
 30
0.0
 10
48.231981
 20
40.212373
 30
0.0
 10
48.819494
 20
40.804526
 30
0.0
 10
49.454963
 20
41.365468
 30
0.0
 10
50.136126
 20
41.881057
 30
0.0
 10
50.860720
 20
42.337150
 30
0.0
 10
51.626485
 20
42.719607
 30
0.0
 10
52.431160
 20
43.014292
 30
0.0
 10
53.272484
 20
43.207058
 30
0.0
 10
54.148194
 20
43.283896
 30
0.0
  0
ENDSEC
  0
SECTION
  2
OBJECTS
  0
DICTIONARY
  5
C
330
0
100
AcDbDictionary
  3
ACAD_GROUP
350
D
  3
ACAD_MLINESTYLE
350
17
  0
DICTIONARY
  5
D
330
C
100
AcDbDictionary
  0
DICTIONARY
  5
1A
330
C
100
AcDbDictionary
  0
DICTIONARY
  5
17
330
C
100
AcDbDictionary
  3
STANDARD
350
18
  0
DICTIONARY
  5
19
330
C
100
AcDbDictionary
  0
ENDSEC
  0
EOF
