  0
SECTION
  2
HEADER
  9
$ACADVER
  1
AC1014
  9
$HANDSEED
  5
FFFF
  9
$MEASUREMENT
 70
     1
  0
ENDSEC
  0
SECTION
  2
TABLES
  0
TABLE
  2
VPORT
  5
8
330
0
100
AcDbSymbolTable
 70
     4
  0
VPORT
  5
2E
330
8
100
AcDbSymbolTableRecord
100
AcDbViewportTableRecord
  2
*ACTIVE
 70
     0
 10
0.0
 20
0.0
 11
1.0
 21
1.0
 12
210.0
 22
148.5
 13
0.0
 23
0.0
 14
10.0
 24
10.0
 15
10.0
 25
10.0
 16
0.0
 26
0.0
 36
1.0
 17
0.0
 27
0.0
 37
0.0
 40
341.0
 41
1.24
 42
50.0
 43
0.0
 44
0.0
 50
0.0
 51
0.0
 71
     0
 72
   100
 73
     1
 74
     3
 75
     0
 76
     0
 77
     0
 78
     0
  0
ENDTAB
  0
TABLE
  2
LTYPE
  5
5
330
0
100
AcDbSymbolTable
 70
     1
  0
LTYPE
  5
14
330
5
100
AcDbSymbolTableRecord
100
AcDbLinetypeTableRecord
  2
BYBLOCK
 70
     0
  3

 72
    65
 73
     0
 40
0.0
  0
LTYPE
  5
15
330
5
100
AcDbSymbolTableRecord
100
AcDbLinetypeTableRecord
  2
BYLAYER
 70
     0
  3

 72
    65
 73
     0
 40
0.0
  0
LTYPE
  5
16
330
5
100
AcDbSymbolTableRecord
100
AcDbLinetypeTableRecord
  2
CONTINUOUS
 70
     0
  3
Solid line
 72
    65
 73
     0
 40
0.0
  0
ENDTAB
  0
TABLE
  2
LAYER
  5
2
100
AcDbSymbolTable
 70
2
  0
LAYER
  5
50
100
AcDbSymbolTableRecord
100
AcDbLayerTableRecord
  2
0
 70
0
  6
CONTINUOUS
  0
LAYER
  5
51
100
AcDbSymbolTableRecord
100
AcDbLayerTableRecord
  2
Layer_1
 70
0
  6
CONTINUOUS
  0
ENDTAB
  0
TABLE
  2
STYLE
  5
3
330
0
100
AcDbSymbolTable
 70
     1
  0
STYLE
  5
11
330
3
100
AcDbSymbolTableRecord
100
AcDbTextStyleTableRecord
  2
STANDARD
 70
     0
 40
0.0
 41
1.0
 50
0.0
 71
     0
 42
2.5
  3
txt
  4

  0
ENDTAB
  0
TABLE
  2
VIEW
  5
6
330
0
100
AcDbSymbolTable
 70
     0
  0
ENDTAB
  0
TABLE
  2
UCS
  5
7
330
0
100
AcDbSymbolTable
 70
     0
  0
ENDTAB
  0
TABLE
  2
APPID
  5
9
330
0
100
AcDbSymbolTable
 70
     2
  0
APPID
  5
12
330
9
100
AcDbSymbolTableRecord
100
AcDbRegAppTableRecord
  2
ACAD
 70
     0
  0
ENDTAB
  0
TABLE
  2
DIMSTYLE
  5
A
330
0
100
AcDbSymbolTable
 70
     1
  0
DIMSTYLE
105
27
330
A
100
AcDbSymbolTableRecord
100
AcDbDimStyleTableRecord
  2
ISO-25
 70
     0
  3

  4

  5

  6

  7

 40
1.0
 41
2.5
 42
0.625
 43
3.75
 44
1.25
 45
0.0
 46
0.0
 47
0.0
 48
0.0
140
2.5
141
2.5
142
0.0
143
0.03937007874016
144
1.0
145
0.0
146
1.0
147
0.625
 71
     0
 72
     0
 73
     0
 74
     0
 75
     0
 76
     0
 77
     1
 78
     8
170
     0
171
     3
172
     1
173
     0
174
     0
175
     0
176
     0
177
     0
178
     0
270
     2
271
     2
272
     2
273
     2
274
     3
340
11
275
     0
280
     0
281
     0
282
     0
283
     0
284
     8
285
     0
286
     0
287
     3
288
     0
  0
ENDTAB
  0
TABLE
  2
BLOCK_RECORD
  5
1
330
0
100
AcDbSymbolTable
 70
     1
  0
BLOCK_RECORD
  5
1F
330
1
100
AcDbSymbolTableRecord
100
AcDbBlockTableRecord
  2
*MODEL_SPACE
  0
BLOCK_RECORD
  5
1B
330
1
100
AcDbSymbolTableRecord
100
AcDbBlockTableRecord
  2
*PAPER_SPACE
  0
ENDTAB
  0
ENDSEC
  0
SECTION
  2
BLOCKS
  0
BLOCK
  5
20
330
1F
100
AcDbEntity
  8
0
100
AcDbBlockBegin
  2
*MODEL_SPACE
 70
     0
 10
0.0
 20
0.0
 30
0.0
  3
*MODEL_SPACE
  1

  0
ENDBLK
  5
21
330
1F
100
AcDbEntity
  8
0
100
AcDbBlockEnd
  0
BLOCK
  5
1C
330
1B
100
AcDbEntity
 67
     1
  8
0
100
AcDbBlockBegin
  2
*PAPER_SPACE
  1

  0
ENDBLK
  5
1D
330
1B
100
AcDbEntity
 67
     1
  8
0
100
AcDbBlockEnd
  0
ENDSEC
  0
SECTION
  2
ENTITIES
  0
LWPOLYLINE
  5
100
100
AcDbEntity
  8
Layer_1
 62
7
100
AcDbPolyline
 90
121
 70
0
 10
75.500354
 20
99.787333
 30
0.0
 10
73.594807
 20
99.582412
 30
0.0
 10
71.740288
 20
99.197765
 30
0.0
 10
69.941615
 20
98.647088
 30
0.0
 10
68.203637
 20
97.944064
 30
0.0
 10
66.531180
 20
97.102387
 30
0.0
 10
64.929080
 20
96.135744
 30
0.0
 10
63.402176
 20
95.057831
 30
0.0
 10
61.955293
 20
93.882336
 30
0.0
 10
60.591246
 20
92.621124
 30
0.0
 10
59.312618
 20
91.283444
 30
0.0
 10
58.123921
 20
89.879042
 30
0.0
 10
57.029655
 20
88.417684
 30
0.0
 10
56.034345
 20
86.909115
 30
0.0
 10
55.142488
 20
85.363094
 30
0.0
 10
54.358608
 20
83.789375
 30
0.0
 10
53.687193
 20
82.197715
 30
0.0
 10
53.575619
 20
81.896448
 30
0.0
 10
53.471425
 20
81.594611
 30
0.0
 10
53.373565
 20
81.292318
 30
0.0
 10
53.280990
 20
80.989682
 30
0.0
 10
53.192663
 20
80.686824
 30
0.0
 10
53.107528
 20
80.383855
 30
0.0
 10
53.024549
 20
80.080890
 30
0.0
 10
52.942671
 20
79.778046
 30
0.0
 10
51.285817
 20
82.166329
 30
0.0
 10
49.445401
 20
84.508378
 30
0.0
 10
47.435714
 20
86.778732
 30
0.0
 10
45.271055
 20
88.951936
 30
0.0
 10
42.965706
 20
91.002531
 30
0.0
 10
40.533961
 20
92.905059
 30
0.0
 10
37.990117
 20
94.634071
 30
0.0
 10
35.348460
 20
96.164099
 30
0.0
 10
33.378656
 20
97.132141
 30
0.0
 10
31.366034
 20
97.966148
 30
0.0
 10
29.317882
 20
98.651936
 30
0.0
 10
27.241488
 20
99.175315
 30
0.0
 10
25.144136
 20
99.522106
 30
0.0
 10
23.033111
 20
99.678119
 30
0.0
 10
20.915703
 20
99.629167
 30
0.0
 10
18.799195
 20
99.361070
 30
0.0
 10
16.700655
 20
98.858421
 30
0.0
 10
14.638543
 20
98.111565
 30
0.0
 10
12.622238
 20
97.114937
 30
0.0
 10
10.661121
 20
95.862971
 30
0.0
 10
8.764570
 20
94.350108
 30
0.0
 10
6.941964
 20
92.570773
 30
0.0
 10
5.202683
 20
90.519421
 30
0.0
 10
3.556107
 20
88.190469
 30
0.0
 10
2.128590
 20
85.646552
 30
0.0
 10
1.108279
 20
83.086105
 30
0.0
 10
0.474041
 20
80.516782
 30
0.0
 10
0.204748
 20
77.946240
 30
0.0
 10
0.279270
 20
75.382138
 30
0.0
 10
0.676477
 20
72.832136
 30
0.0
 10
1.375238
 20
70.303894
 30
0.0
 10
2.354424
 20
67.805064
 30
0.0
 10
3.583605
 20
65.331593
 30
0.0
 10
5.033297
 20
62.870524
 30
0.0
 10
6.683781
 20
60.416185
 30
0.0
 10
8.515338
 20
57.962883
 30
0.0
 10
10.508247
 20
55.504948
 30
0.0
 10
12.642792
 20
53.036694
 30
0.0
 10
14.899250
 20
50.552444
 30
0.0
 10
17.257906
 20
48.046520
 30
0.0
 10
22.207228
 20
42.950577
 30
0.0
 10
27.344012
 20
37.724352
 30
0.0
 10
32.520565
 20
32.348298
 30
0.0
 10
37.589209
 20
26.802880
 30
0.0
 10
42.402249
 20
21.068531
 30
0.0
 10
46.811997
 20
15.125761
 30
0.0
 10
50.670770
 20
8.954997
 30
0.0
 10
53.830869
 20
2.536643
 30
0.0
 10
53.954959
 20
2.245164
 30
0.0
 10
54.079047
 20
1.953685
 30
0.0
 10
54.203132
 20
1.662206
 30
0.0
 10
54.327219
 20
1.370670
 30
0.0
 10
54.451304
 20
1.079219
 30
0.0
 10
54.575394
 20
0.787740
 30
0.0
 10
54.699479
 20
0.496261
 30
0.0
 10
54.823566
 20
0.204754
 30
0.0
 10
55.091330
 20
0.384952
 30
0.0
 10
55.359097
 20
0.565208
 30
0.0
 10
55.626864
 20
0.745435
 30
0.0
 10
55.894630
 20
0.925634
 30
0.0
 10
56.162394
 20
1.105861
 30
0.0
 10
56.430167
 20
1.286088
 30
0.0
 10
56.697928
 20
1.466343
 30
0.0
 10
56.965695
 20
1.646542
 30
0.0
 10
62.318525
 20
5.599657
 30
0.0
 10
67.583411
 20
10.191808
 30
0.0
 10
72.690166
 20
15.336747
 30
0.0
 10
77.568589
 20
20.948016
 30
0.0
 10
82.148480
 20
26.939227
 30
0.0
 10
86.359639
 20
33.224042
 30
0.0
 10
90.131869
 20
39.716068
 30
0.0
 10
93.394984
 20
46.328930
 30
0.0
 10
94.813320
 20
49.653759
 30
0.0
 10
96.076132
 20
52.977250
 30
0.0
 10
97.172856
 20
56.289641
 30
0.0
 10
98.092926
 20
59.581174
 30
0.0
 10
98.825761
 20
62.842085
 30
0.0
 10
99.360809
 20
66.062619
 30
0.0
 10
99.687493
 20
69.233016
 30
0.0
 10
99.795251
 20
72.343514
 30
0.0
 10
99.670006
 20
75.386826
 30
0.0
 10
99.297422
 20
78.351285
 30
0.0
 10
98.666514
 20
81.220599
 30
0.0
 10
97.766305
 20
83.978441
 30
0.0
 10
96.585806
 20
86.608504
 30
0.0
 10
95.114059
 20
89.094478
 30
0.0
 10
93.340064
 20
91.420048
 30
0.0
 10
91.252853
 20
93.568908
 30
0.0
 10
89.328526
 20
95.181819
 30
0.0
 10
87.371970
 20
96.541589
 30
0.0
 10
85.392912
 20
97.655415
 30
0.0
 10
83.401078
 20
98.530499
 30
0.0
 10
81.406179
 20
99.174033
 30
0.0
 10
79.417937
 20
99.593218
 30
0.0
 10
77.446093
 20
99.795252
 30
0.0
 10
75.500354
 20
99.787322
 30
0.0
  0
ENDSEC
  0
SECTION
  2
OBJECTS
  0
DICTIONARY
  5
C
330
0
100
AcDbDictionary
  3
ACAD_GROUP
350
D
  3
ACAD_MLINESTYLE
350
17
  0
DICTIONARY
  5
D
330
C
100
AcDbDictionary
  0
DICTIONARY
  5
1A
330
C
100
AcDbDictionary
  0
DICTIONARY
  5
17
330
C
100
AcDbDictionary
  3
STANDARD
350
18
  0
DICTIONARY
  5
19
330
C
100
AcDbDictionary
  0
ENDSEC
  0
EOF
