  0
SECTION
  2
HEADER
  9
$ACADVER
  1
AC1014
  9
$HANDSEED
  5
FFFF
  9
$MEASUREMENT
 70
     1
  0
ENDSEC
  0
SECTION
  2
TABLES
  0
TABLE
  2
VPORT
  5
8
330
0
100
AcDbSymbolTable
 70
     4
  0
VPORT
  5
2E
330
8
100
AcDbSymbolTableRecord
100
AcDbViewportTableRecord
  2
*ACTIVE
 70
     0
 10
0.0
 20
0.0
 11
1.0
 21
1.0
 12
210.0
 22
148.5
 13
0.0
 23
0.0
 14
10.0
 24
10.0
 15
10.0
 25
10.0
 16
0.0
 26
0.0
 36
1.0
 17
0.0
 27
0.0
 37
0.0
 40
341.0
 41
1.24
 42
50.0
 43
0.0
 44
0.0
 50
0.0
 51
0.0
 71
     0
 72
   100
 73
     1
 74
     3
 75
     0
 76
     0
 77
     0
 78
     0
  0
ENDTAB
  0
TABLE
  2
LTYPE
  5
5
330
0
100
AcDbSymbolTable
 70
     1
  0
LTYPE
  5
14
330
5
100
AcDbSymbolTableRecord
100
AcDbLinetypeTableRecord
  2
BYBLOCK
 70
     0
  3

 72
    65
 73
     0
 40
0.0
  0
LTYPE
  5
15
330
5
100
AcDbSymbolTableRecord
100
AcDbLinetypeTableRecord
  2
BYLAYER
 70
     0
  3

 72
    65
 73
     0
 40
0.0
  0
LTYPE
  5
16
330
5
100
AcDbSymbolTableRecord
100
AcDbLinetypeTableRecord
  2
CONTINUOUS
 70
     0
  3
Solid line
 72
    65
 73
     0
 40
0.0
  0
ENDTAB
  0
TABLE
  2
LAYER
  5
2
100
AcDbSymbolTable
 70
2
  0
LAYER
  5
50
100
AcDbSymbolTableRecord
100
AcDbLayerTableRecord
  2
0
 70
0
  6
CONTINUOUS
  0
LAYER
  5
51
100
AcDbSymbolTableRecord
100
AcDbLayerTableRecord
  2
Layer_1
 70
0
  6
CONTINUOUS
  0
ENDTAB
  0
TABLE
  2
STYLE
  5
3
330
0
100
AcDbSymbolTable
 70
     1
  0
STYLE
  5
11
330
3
100
AcDbSymbolTableRecord
100
AcDbTextStyleTableRecord
  2
STANDARD
 70
     0
 40
0.0
 41
1.0
 50
0.0
 71
     0
 42
2.5
  3
txt
  4

  0
ENDTAB
  0
TABLE
  2
VIEW
  5
6
330
0
100
AcDbSymbolTable
 70
     0
  0
ENDTAB
  0
TABLE
  2
UCS
  5
7
330
0
100
AcDbSymbolTable
 70
     0
  0
ENDTAB
  0
TABLE
  2
APPID
  5
9
330
0
100
AcDbSymbolTable
 70
     2
  0
APPID
  5
12
330
9
100
AcDbSymbolTableRecord
100
AcDbRegAppTableRecord
  2
ACAD
 70
     0
  0
ENDTAB
  0
TABLE
  2
DIMSTYLE
  5
A
330
0
100
AcDbSymbolTable
 70
     1
  0
DIMSTYLE
105
27
330
A
100
AcDbSymbolTableRecord
100
AcDbDimStyleTableRecord
  2
ISO-25
 70
     0
  3

  4

  5

  6

  7

 40
1.0
 41
2.5
 42
0.625
 43
3.75
 44
1.25
 45
0.0
 46
0.0
 47
0.0
 48
0.0
140
2.5
141
2.5
142
0.0
143
0.03937007874016
144
1.0
145
0.0
146
1.0
147
0.625
 71
     0
 72
     0
 73
     0
 74
     0
 75
     0
 76
     0
 77
     1
 78
     8
170
     0
171
     3
172
     1
173
     0
174
     0
175
     0
176
     0
177
     0
178
     0
270
     2
271
     2
272
     2
273
     2
274
     3
340
11
275
     0
280
     0
281
     0
282
     0
283
     0
284
     8
285
     0
286
     0
287
     3
288
     0
  0
ENDTAB
  0
TABLE
  2
BLOCK_RECORD
  5
1
330
0
100
AcDbSymbolTable
 70
     1
  0
BLOCK_RECORD
  5
1F
330
1
100
AcDbSymbolTableRecord
100
AcDbBlockTableRecord
  2
*MODEL_SPACE
  0
BLOCK_RECORD
  5
1B
330
1
100
AcDbSymbolTableRecord
100
AcDbBlockTableRecord
  2
*PAPER_SPACE
  0
ENDTAB
  0
ENDSEC
  0
SECTION
  2
BLOCKS
  0
BLOCK
  5
20
330
1F
100
AcDbEntity
  8
0
100
AcDbBlockBegin
  2
*MODEL_SPACE
 70
     0
 10
0.0
 20
0.0
 30
0.0
  3
*MODEL_SPACE
  1

  0
ENDBLK
  5
21
330
1F
100
AcDbEntity
  8
0
100
AcDbBlockEnd
  0
BLOCK
  5
1C
330
1B
100
AcDbEntity
 67
     1
  8
0
100
AcDbBlockBegin
  2
*PAPER_SPACE
  1

  0
ENDBLK
  5
1D
330
1B
100
AcDbEntity
 67
     1
  8
0
100
AcDbBlockEnd
  0
ENDSEC
  0
SECTION
  2
ENTITIES
  0
LWPOLYLINE
  5
100
100
AcDbEntity
  8
Layer_1
 62
7
100
AcDbPolyline
 90
121
 70
0
 10
50.849073
 20
70.052851
 30
0.0
 10
49.562430
 20
69.908695
 30
0.0
 10
48.310236
 20
69.638112
 30
0.0
 10
47.095754
 20
69.250728
 30
0.0
 10
45.922255
 20
68.756176
 30
0.0
 10
44.792993
 20
68.164085
 30
0.0
 10
43.711241
 20
67.484087
 30
0.0
 10
42.680258
 20
66.725813
 30
0.0
 10
41.703309
 20
65.898893
 30
0.0
 10
40.782288
 20
65.011674
 30
0.0
 10
39.918945
 20
64.070663
 30
0.0
 10
39.116325
 20
63.082716
 30
0.0
 10
38.377467
 20
62.054702
 30
0.0
 10
37.705422
 20
60.993476
 30
0.0
 10
37.103233
 20
59.905904
 30
0.0
 10
36.573945
 20
58.798848
 30
0.0
 10
36.120601
 20
57.679171
 30
0.0
 10
36.045264
 20
57.467242
 30
0.0
 10
35.974912
 20
57.254909
 30
0.0
 10
35.908835
 20
57.042257
 30
0.0
 10
35.846329
 20
56.829363
 30
0.0
 10
35.786689
 20
56.616313
 30
0.0
 10
35.729206
 20
56.403185
 30
0.0
 10
35.673177
 20
56.190059
 30
0.0
 10
35.617892
 20
55.977018
 30
0.0
 10
34.499166
 20
57.657093
 30
0.0
 10
33.256499
 20
59.304641
 30
0.0
 10
31.899538
 20
60.901756
 30
0.0
 10
30.437938
 20
62.430529
 30
0.0
 10
28.881341
 20
63.873051
 30
0.0
 10
27.239403
 20
65.211414
 30
0.0
 10
25.521772
 20
66.427713
 30
0.0
 10
23.738099
 20
67.504032
 30
0.0
 10
22.408066
 20
68.185017
 30
0.0
 10
21.049123
 20
68.771712
 30
0.0
 10
19.666190
 20
69.254140
 30
0.0
 10
18.264186
 20
69.622319
 30
0.0
 10
16.848032
 20
69.866274
 30
0.0
 10
15.422647
 20
69.976022
 30
0.0
 10
13.992951
 20
69.941588
 30
0.0
 10
12.563863
 20
69.752990
 30
0.0
 10
11.146907
 20
69.399394
 30
0.0
 10
9.754547
 20
68.874006
 30
0.0
 10
8.393118
 20
68.172913
 30
0.0
 10
7.068951
 20
67.292199
 30
0.0
 10
5.788379
 20
66.227953
 30
0.0
 10
4.557737
 20
64.976255
 30
0.0
 10
3.383357
 20
63.533199
 30
0.0
 10
2.271572
 20
61.894865
 30
0.0
 10
1.307698
 20
60.105308
 30
0.0
 10
0.618773
 20
58.304121
 30
0.0
 10
0.190529
 20
56.496694
 30
0.0
 10
0.008700
 20
54.688405
 30
0.0
 10
0.059018
 20
52.884653
 30
0.0
 10
0.327216
 20
51.090817
 30
0.0
 10
0.799027
 20
49.312287
 30
0.0
 10
1.460183
 20
47.554449
 30
0.0
 10
2.290139
 20
45.814447
 30
0.0
 10
3.268986
 20
44.083175
 30
0.0
 10
4.383410
 20
42.356629
 30
0.0
 10
5.620096
 20
40.630818
 30
0.0
 10
6.965729
 20
38.901747
 30
0.0
 10
8.406995
 20
37.165420
 30
0.0
 10
9.930580
 20
35.417838
 30
0.0
 10
11.523168
 20
33.655007
 30
0.0
 10
14.865002
 20
30.070192
 30
0.0
 10
18.333411
 20
26.393726
 30
0.0
 10
21.828676
 20
22.611860
 30
0.0
 10
25.251076
 20
18.710852
 30
0.0
 10
28.500891
 20
14.676940
 30
0.0
 10
31.478398
 20
10.496410
 30
0.0
 10
34.083879
 20
6.155494
 30
0.0
 10
36.217614
 20
1.640418
 30
0.0
 10
36.301398
 20
1.435355
 30
0.0
 10
36.385184
 20
1.230321
 30
0.0
 10
36.468967
 20
1.025258
 30
0.0
 10
36.552753
 20
0.820196
 30
0.0
 10
36.636537
 20
0.615161
 30
0.0
 10
36.720323
 20
0.410098
 30
0.0
 10
36.804106
 20
0.205064
 30
0.0
 10
36.887892
 20
0.000001
 30
0.0
 10
37.068689
 20
0.126776
 30
0.0
 10
37.249489
 20
0.253578
 30
0.0
 10
37.430287
 20
0.380352
 30
0.0
 10
37.611087
 20
0.507126
 30
0.0
 10
37.791884
 20
0.633901
 30
0.0
 10
37.972684
 20
0.760675
 30
0.0
 10
38.153481
 20
0.887477
 30
0.0
 10
38.334281
 20
1.014252
 30
0.0
 10
41.948566
 20
3.795128
 30
0.0
 10
45.503471
 20
7.025557
 30
0.0
 10
48.951605
 20
10.644831
 30
0.0
 10
52.245565
 20
14.592160
 30
0.0
 10
55.337956
 20
18.806768
 30
0.0
 10
58.181373
 20
23.227915
 30
0.0
 10
60.728425
 20
27.794826
 30
0.0
 10
62.931712
 20
32.446743
 30
0.0
 10
63.889388
 20
34.785643
 30
0.0
 10
64.742052
 20
37.123603
 30
0.0
 10
65.482572
 20
39.453751
 30
0.0
 10
66.103810
 20
41.769229
 30
0.0
 10
66.598631
 20
44.063168
 30
0.0
 10
66.959901
 20
46.328698
 30
0.0
 10
67.180480
 20
48.558962
 30
0.0
 10
67.253239
 20
50.747087
 30
0.0
 10
67.168674
 20
52.887949
 30
0.0
 10
66.917102
 20
54.973346
 30
0.0
 10
66.491104
 20
56.991804
 30
0.0
 10
65.883274
 20
58.931851
 30
0.0
 10
65.086190
 20
60.782007
 30
0.0
 10
64.092449
 20
62.530802
 30
0.0
 10
62.894631
 20
64.166760
 30
0.0
 10
61.485323
 20
65.678407
 30
0.0
 10
60.185997
 20
66.813033
 30
0.0
 10
58.864912
 20
67.769583
 30
0.0
 10
57.528632
 20
68.553122
 30
0.0
 10
56.183722
 20
69.168711
 30
0.0
 10
54.836746
 20
69.621415
 30
0.0
 10
53.494268
 20
69.916298
 30
0.0
 10
52.162857
 20
70.058422
 30
0.0
 10
50.849073
 20
70.052851
 30
0.0
  0
LWPOLYLINE
  5
101
100
AcDbEntity
  8
Layer_1
 62
7
100
AcDbPolyline
 90
113
 70
0
 10
51.025462
 20
67.230629
 30
0.0
 10
52.038165
 20
67.238672
 30
0.0
 10
53.066594
 20
67.136268
 30
0.0
 10
54.110193
 20
66.913383
 30
0.0
 10
55.168402
 20
66.560004
 30
0.0
 10
56.240669
 20
66.066104
 30
0.0
 10
57.326431
 20
65.421669
 30
0.0
 10
58.425136
 20
64.616676
 30
0.0
 10
59.536226
 20
63.641104
 30
0.0
 10
60.724359
 20
62.369673
 30
0.0
 10
61.737133
 20
60.992440
 30
0.0
 10
62.579902
 20
59.513689
 30
0.0
 10
63.258020
 20
57.937698
 30
0.0
 10
63.776837
 20
56.268760
 30
0.0
 10
64.141706
 20
54.511153
 30
0.0
 10
64.357984
 20
52.669165
 30
0.0
 10
64.431017
 20
50.747076
 30
0.0
 10
64.363735
 20
48.752496
 30
0.0
 10
64.159076
 20
46.696101
 30
0.0
 10
63.822425
 20
44.586792
 30
0.0
 10
63.359163
 20
42.433467
 30
0.0
 10
62.774669
 20
40.245023
 30
0.0
 10
62.074323
 20
38.030363
 30
0.0
 10
61.263513
 20
35.798383
 30
0.0
 10
60.347614
 20
33.557982
 30
0.0
 10
58.340151
 20
29.313439
 30
0.0
 10
56.019852
 20
25.130440
 30
0.0
 10
53.432566
 20
21.063595
 30
0.0
 10
50.624147
 20
17.167525
 30
0.0
 10
47.640446
 20
13.496844
 30
0.0
 10
44.527312
 20
10.106170
 30
0.0
 10
41.330598
 20
7.050099
 30
0.0
 10
38.096156
 20
4.383268
 30
0.0
 10
35.779702
 20
8.896792
 30
0.0
 10
33.067267
 20
13.202741
 30
0.0
 10
30.050410
 20
17.316838
 30
0.0
 10
26.820700
 20
21.254817
 30
0.0
 10
23.469697
 20
25.032398
 30
0.0
 10
20.088963
 20
28.665310
 30
0.0
 10
16.770062
 20
32.169271
 30
0.0
 10
13.604557
 20
35.560007
 30
0.0
 10
12.042276
 20
37.292137
 30
0.0
 10
10.560676
 20
38.997587
 30
0.0
 10
9.172037
 20
40.676278
 30
0.0
 10
7.888642
 20
42.328136
 30
0.0
 10
6.722769
 20
43.953084
 30
0.0
 10
5.686701
 20
45.551043
 30
0.0
 10
4.792717
 20
47.121940
 30
0.0
 10
4.053099
 20
48.665699
 30
0.0
 10
3.473290
 20
50.177207
 30
0.0
 10
3.058206
 20
51.657661
 30
0.0
 10
2.819338
 20
53.116433
 30
0.0
 10
2.768179
 20
54.562898
 30
0.0
 10
2.916220
 20
56.006431
 30
0.0
 10
3.274952
 20
57.456410
 30
0.0
 10
3.855869
 20
58.922207
 30
0.0
 10
4.670460
 20
60.413199
 30
0.0
 10
5.647308
 20
61.860310
 30
0.0
 10
6.650295
 20
63.106318
 30
0.0
 10
7.677048
 20
64.162374
 30
0.0
 10
8.725194
 20
65.039628
 30
0.0
 10
9.792356
 20
65.749236
 30
0.0
 10
10.876163
 20
66.302347
 30
0.0
 10
11.974239
 20
66.710113
 30
0.0
 10
13.084210
 20
66.983685
 30
0.0
 10
14.209947
 20
67.131171
 30
0.0
 10
15.354186
 20
67.156656
 30
0.0
 10
16.512851
 20
67.065272
 30
0.0
 10
17.681866
 20
66.862143
 30
0.0
 10
18.857154
 20
66.552384
 30
0.0
 10
20.034641
 20
66.141122
 30
0.0
 10
21.210250
 20
65.633480
 30
0.0
 10
22.379904
 20
65.034579
 30
0.0
 10
25.264831
 20
63.272392
 30
0.0
 10
27.675983
 20
61.576349
 30
0.0
 10
29.690540
 20
59.903590
 30
0.0
 10
31.385682
 20
58.211261
 30
0.0
 10
32.838593
 20
56.456502
 30
0.0
 10
34.126455
 20
54.596460
 30
0.0
 10
35.326447
 20
52.588271
 30
0.0
 10
36.515751
 20
50.389086
 30
0.0
 10
36.818274
 20
51.380981
 30
0.0
 10
37.117153
 20
52.290648
 30
0.0
 10
37.411183
 20
53.130203
 30
0.0
 10
37.699163
 20
53.911755
 30
0.0
 10
37.979881
 20
54.647418
 30
0.0
 10
38.252132
 20
55.349308
 30
0.0
 10
38.514714
 20
56.029531
 30
0.0
 10
38.766420
 20
56.700204
 30
0.0
 10
39.154111
 20
57.654522
 30
0.0
 10
39.611963
 20
58.606878
 30
0.0
 10
40.135813
 20
59.548856
 30
0.0
 10
40.721503
 20
60.472045
 30
0.0
 10
41.364876
 20
61.368035
 30
0.0
 10
42.061768
 20
62.228412
 30
0.0
 10
42.808020
 20
63.044763
 30
0.0
 10
43.599475
 20
63.808676
 30
0.0
 10
44.430877
 20
64.511808
 30
0.0
 10
45.297290
 20
65.147629
 30
0.0
 10
46.195048
 20
65.710453
 30
0.0
 10
47.120474
 20
66.194597
 30
0.0
 10
48.069901
 20
66.594370
 30
0.0
 10
49.039653
 20
66.904090
 30
0.0
 10
50.026059
 20
67.118068
 30
0.0
 10
51.025448
 20
67.230621
 30
0.0
 10
51.025450
 20
67.230621
 30
0.0
 10
51.025450
 20
67.230621
 30
0.0
 10
51.025453
 20
67.230621
 30
0.0
 10
51.025453
 20
67.230621
 30
0.0
 10
51.025456
 20
67.230621
 30
0.0
 10
51.025459
 20
67.230621
 30
0.0
 10
51.025459
 20
67.230621
 30
0.0
 10
51.025462
 20
67.230629
 30
0.0
  0
ENDSEC
  0
SECTION
  2
OBJECTS
  0
DICTIONARY
  5
C
330
0
100
AcDbDictionary
  3
ACAD_GROUP
350
D
  3
ACAD_MLINESTYLE
350
17
  0
DICTIONARY
  5
D
330
C
100
AcDbDictionary
  0
DICTIONARY
  5
1A
330
C
100
AcDbDictionary
  0
DICTIONARY
  5
17
330
C
100
AcDbDictionary
  3
STANDARD
350
18
  0
DICTIONARY
  5
19
330
C
100
AcDbDictionary
  0
ENDSEC
  0
EOF
