999
DXF created by Inkscape
  0
SECTION
  2
HEADER
  9
$ACADVER
  1
AC1014
  9
$HANDSEED
  5
FFFF
  9
$MEASUREMENT
 70
     1
  0
ENDSEC
  0
SECTION
  2
TABLES
  0
TABLE
  2
VPORT
  5
8
330
0
100
AcDbSymbolTable
 70
     4
  0
VPORT
  5
2E
330
8
100
AcDbSymbolTableRecord
100
AcDbViewportTableRecord
  2
*ACTIVE
 70
     0
 10
0.0
 20
0.0
 11
1.0
 21
1.0
 12
210.0
 22
148.5
 13
0.0
 23
0.0
 14
10.0
 24
10.0
 15
10.0
 25
10.0
 16
0.0
 26
0.0
 36
1.0
 17
0.0
 27
0.0
 37
0.0
 40
341.0
 41
1.24
 42
50.0
 43
0.0
 44
0.0
 50
0.0
 51
0.0
 71
     0
 72
   100
 73
     1
 74
     3
 75
     0
 76
     0
 77
     0
 78
     0
  0
ENDTAB
  0
TABLE
  2
LTYPE
  5
5
330
0
100
AcDbSymbolTable
 70
     1
  0
LTYPE
  5
14
330
5
100
AcDbSymbolTableRecord
100
AcDbLinetypeTableRecord
  2
BYBLOCK
 70
     0
  3

 72
    65
 73
     0
 40
0.0
  0
LTYPE
  5
15
330
5
100
AcDbSymbolTableRecord
100
AcDbLinetypeTableRecord
  2
BYLAYER
 70
     0
  3

 72
    65
 73
     0
 40
0.0
  0
LTYPE
  5
16
330
5
100
AcDbSymbolTableRecord
100
AcDbLinetypeTableRecord
  2
CONTINUOUS
 70
     0
  3
Solid line
 72
    65
 73
     0
 40
0.0
  0
ENDTAB
  0
TABLE
  2
LAYER
  5
2
100
AcDbSymbolTable
 70
2
  0
LAYER
  5
50
100
AcDbSymbolTableRecord
100
AcDbLayerTableRecord
  2
0
 70
0
  6
CONTINUOUS
  0
LAYER
  5
51
100
AcDbSymbolTableRecord
100
AcDbLayerTableRecord
  2
Layer_1
 70
0
  6
CONTINUOUS
  0
ENDTAB
  0
TABLE
  2
STYLE
  5
3
330
0
100
AcDbSymbolTable
 70
     1
  0
STYLE
  5
11
330
3
100
AcDbSymbolTableRecord
100
AcDbTextStyleTableRecord
  2
STANDARD
 70
     0
 40
0.0
 41
1.0
 50
0.0
 71
     0
 42
2.5
  3
txt
  4

  0
ENDTAB
  0
TABLE
  2
VIEW
  5
6
330
0
100
AcDbSymbolTable
 70
     0
  0
ENDTAB
  0
TABLE
  2
UCS
  5
7
330
0
100
AcDbSymbolTable
 70
     0
  0
ENDTAB
  0
TABLE
  2
APPID
  5
9
330
0
100
AcDbSymbolTable
 70
     2
  0
APPID
  5
12
330
9
100
AcDbSymbolTableRecord
100
AcDbRegAppTableRecord
  2
ACAD
 70
     0
  0
ENDTAB
  0
TABLE
  2
DIMSTYLE
  5
A
330
0
100
AcDbSymbolTable
 70
     1
  0
DIMSTYLE
105
27
330
A
100
AcDbSymbolTableRecord
100
AcDbDimStyleTableRecord
  2
ISO-25
 70
     0
  3

  4

  5

  6

  7

 40
1.0
 41
2.5
 42
0.625
 43
3.75
 44
1.25
 45
0.0
 46
0.0
 47
0.0
 48
0.0
140
2.5
141
2.5
142
0.0
143
0.03937007874016
144
1.0
145
0.0
146
1.0
147
0.625
 71
     0
 72
     0
 73
     0
 74
     0
 75
     0
 76
     0
 77
     1
 78
     8
170
     0
171
     3
172
     1
173
     0
174
     0
175
     0
176
     0
177
     0
178
     0
270
     2
271
     2
272
     2
273
     2
274
     3
340
11
275
     0
280
     0
281
     0
282
     0
283
     0
284
     8
285
     0
286
     0
287
     3
288
     0
  0
ENDTAB
  0
TABLE
  2
BLOCK_RECORD
  5
1
330
0
100
AcDbSymbolTable
 70
     1
  0
BLOCK_RECORD
  5
1F
330
1
100
AcDbSymbolTableRecord
100
AcDbBlockTableRecord
  2
*MODEL_SPACE
  0
BLOCK_RECORD
  5
1B
330
1
100
AcDbSymbolTableRecord
100
AcDbBlockTableRecord
  2
*PAPER_SPACE
  0
ENDTAB
  0
ENDSEC
  0
SECTION
  2
BLOCKS
  0
BLOCK
  5
20
330
1F
100
AcDbEntity
  8
0
100
AcDbBlockBegin
  2
*MODEL_SPACE
 70
     0
 10
0.0
 20
0.0
 30
0.0
  3
*MODEL_SPACE
  1

  0
ENDBLK
  5
21
330
1F
100
AcDbEntity
  8
0
100
AcDbBlockEnd
  0
BLOCK
  5
1C
330
1B
100
AcDbEntity
 67
     1
  8
0
100
AcDbBlockBegin
  2
*PAPER_SPACE
  1

  0
ENDBLK
  5
1D
330
1B
100
AcDbEntity
 67
     1
  8
0
100
AcDbBlockEnd
  0
ENDSEC
  0
SECTION
  2
ENTITIES
  0
LWPOLYLINE
  5
100
100
AcDbEntity
  8
Layer_1
 62
7
100
AcDbPolyline
 90
161
 70
0
 10
80.714537
 20
1.750908
 30
0.0
 10
79.167098
 20
0.892557
 30
0.0
 10
77.519028
 20
0.461802
 30
0.0
 10
75.781527
 20
0.407220
 30
0.0
 10
73.965805
 20
0.677419
 30
0.0
 10
72.083066
 20
1.221036
 30
0.0
 10
70.144527
 20
1.986676
 30
0.0
 10
68.161377
 20
2.922949
 30
0.0
 10
66.144834
 20
3.978488
 30
0.0
 10
64.106103
 20
5.101902
 30
0.0
 10
62.056388
 20
6.241769
 30
0.0
 10
60.006890
 20
7.346697
 30
0.0
 10
57.968825
 20
8.365378
 30
0.0
 10
55.953395
 20
9.246363
 30
0.0
 10
53.971805
 20
9.938259
 30
0.0
 10
52.035264
 20
10.389730
 30
0.0
 10
50.154975
 20
10.549355
 30
0.0
 10
48.275296
 20
10.382759
 30
0.0
 10
46.340446
 20
9.924064
 30
0.0
 10
44.361447
 20
9.224802
 30
0.0
 10
42.349307
 20
8.336338
 30
0.0
 10
40.315047
 20
7.310093
 30
0.0
 10
38.269678
 20
6.197488
 30
0.0
 10
36.224216
 20
5.050001
 30
0.0
 10
34.189678
 20
3.919024
 30
0.0
 10
32.177076
 20
2.856034
 30
0.0
 10
30.197425
 20
1.912339
 30
0.0
 10
28.261745
 20
1.139530
 30
0.0
 10
26.381042
 20
0.588886
 30
0.0
 10
24.566339
 20
0.311942
 30
0.0
 10
22.828650
 20
0.360060
 30
0.0
 10
21.178983
 20
0.784692
 30
0.0
 10
19.628363
 20
1.637285
 30
0.0
 10
18.333843
 20
2.843729
 30
0.0
 10
17.414870
 20
4.278039
 30
0.0
 10
16.826033
 20
5.913601
 30
0.0
 10
16.521928
 20
7.723972
 30
0.0
 10
16.457143
 20
9.682566
 30
0.0
 10
16.586268
 20
11.762798
 30
0.0
 10
16.863896
 20
13.938195
 30
0.0
 10
17.244619
 20
16.182237
 30
0.0
 10
17.683026
 20
18.468333
 30
0.0
 10
18.133710
 20
20.769968
 30
0.0
 10
18.551262
 20
23.060605
 30
0.0
 10
18.890272
 20
25.313703
 30
0.0
 10
19.105332
 20
27.502729
 30
0.0
 10
19.151035
 20
29.601147
 30
0.0
 10
18.981970
 20
31.582415
 30
0.0
 10
18.552729
 20
33.419998
 30
0.0
 10
17.813423
 20
35.156198
 30
0.0
 10
16.779312
 20
36.854614
 30
0.0
 10
15.502713
 20
38.520668
 30
0.0
 10
14.035938
 20
40.159769
 30
0.0
 10
12.431304
 20
41.777340
 30
0.0
 10
10.741125
 20
43.378796
 30
0.0
 10
9.017715
 20
44.969553
 30
0.0
 10
7.313390
 20
46.555024
 30
0.0
 10
5.680464
 20
48.140630
 30
0.0
 10
4.171253
 20
49.731782
 30
0.0
 10
2.838070
 20
51.333907
 30
0.0
 10
1.733232
 20
52.952406
 30
0.0
 10
0.909052
 20
54.592707
 30
0.0
 10
0.417845
 20
56.260220
 30
0.0
 10
0.311926
 20
57.960363
 30
0.0
 10
0.643611
 20
59.698555
 30
0.0
 10
1.390992
 20
61.302532
 30
0.0
 10
2.471108
 20
62.619747
 30
0.0
 10
3.844688
 20
63.685190
 30
0.0
 10
5.472461
 20
64.533841
 30
0.0
 10
7.315157
 20
65.200687
 30
0.0
 10
9.333506
 20
65.720718
 30
0.0
 10
11.488236
 20
66.128918
 30
0.0
 10
13.740079
 20
66.460270
 30
0.0
 10
16.049764
 20
66.749765
 30
0.0
 10
18.378018
 20
67.032382
 30
0.0
 10
20.685574
 20
67.343112
 30
0.0
 10
22.933161
 20
67.716938
 30
0.0
 10
25.081506
 20
68.188850
 30
0.0
 10
27.091340
 20
68.793830
 30
0.0
 10
28.923395
 20
69.566868
 30
0.0
 10
30.538397
 20
70.542944
 30
0.0
 10
31.961161
 20
71.782580
 30
0.0
 10
33.256895
 20
73.290917
 30
0.0
 10
34.446913
 20
75.019875
 30
0.0
 10
35.552538
 20
76.921370
 30
0.0
 10
36.595081
 20
78.947325
 30
0.0
 10
37.595858
 20
81.049660
 30
0.0
 10
38.576196
 20
83.180291
 30
0.0
 10
39.557404
 20
85.291135
 30
0.0
 10
40.560803
 20
87.334120
 30
0.0
 10
41.607706
 20
89.261158
 30
0.0
 10
42.719439
 20
91.024172
 30
0.0
 10
43.917311
 20
92.575082
 30
0.0
 10
45.222643
 20
93.865806
 30
0.0
 10
46.656749
 20
94.848258
 30
0.0
 10
48.240953
 20
95.474368
 30
0.0
 10
49.996564
 20
95.696048
 30
0.0
 10
51.752994
 20
95.480899
 30
0.0
 10
53.339515
 20
94.860693
 30
0.0
 10
54.777270
 20
93.883580
 30
0.0
 10
56.087394
 20
92.597722
 30
0.0
 10
57.291029
 20
91.051283
 30
0.0
 10
58.409309
 20
89.292420
 30
0.0
 10
59.463378
 20
87.369287
 30
0.0
 10
60.474372
 20
85.330051
 30
0.0
 10
61.463425
 20
83.222867
 30
0.0
 10
62.451686
 20
81.095902
 30
0.0
 10
63.460283
 20
78.997306
 30
0.0
 10
64.510353
 20
76.975243
 30
0.0
 10
65.623042
 20
75.077877
 30
0.0
 10
66.819486
 20
73.353358
 30
0.0
 10
68.120824
 20
71.849853
 30
0.0
 10
69.548192
 20
70.615521
 30
0.0
 10
71.166815
 20
69.645458
 30
0.0
 10
73.001731
 20
68.879244
 30
0.0
 10
75.013803
 20
68.281746
 30
0.0
 10
77.163888
 20
67.817829
 30
0.0
 10
79.412849
 20
67.452368
 30
0.0
 10
81.721545
 20
67.150224
 30
0.0
 10
84.050838
 20
66.876271
 30
0.0
 10
86.361580
 20
66.595375
 30
0.0
 10
88.614642
 20
66.272403
 30
0.0
 10
90.770877
 20
65.872223
 30
0.0
 10
92.791147
 20
65.359705
 30
0.0
 10
94.636313
 20
64.699717
 30
0.0
 10
96.267230
 20
63.857131
 30
0.0
 10
97.644766
 20
62.796808
 30
0.0
 10
98.729775
 20
61.483620
 30
0.0
 10
99.483122
 20
59.882437
 30
0.0
 10
99.821272
 20
58.145492
 30
0.0
 10
99.721676
 20
56.444965
 30
0.0
 10
99.236677
 20
54.775635
 30
0.0
 10
98.418608
 20
53.132280
 30
0.0
 10
97.319795
 20
51.509680
 30
0.0
 10
95.992586
 20
49.902611
 30
0.0
 10
94.489304
 20
48.305854
 30
0.0
 10
92.862287
 20
46.714180
 30
0.0
 10
91.163874
 20
45.122382
 30
0.0
 10
89.446396
 20
43.525224
 30
0.0
 10
87.762187
 20
41.917492
 30
0.0
 10
86.163582
 20
40.293957
 30
0.0
 10
84.702915
 20
38.649409
 30
0.0
 10
83.432523
 20
36.978617
 30
0.0
 10
82.404737
 20
35.276362
 30
0.0
 10
81.671899
 20
33.537425
 30
0.0
 10
81.249497
 20
31.698259
 30
0.0
 10
81.087807
 20
29.716376
 30
0.0
 10
81.141313
 20
27.618147
 30
0.0
 10
81.364520
 20
25.429934
 30
0.0
 10
81.711910
 20
23.178111
 30
0.0
 10
82.137984
 20
20.889043
 30
0.0
 10
82.597230
 20
18.589101
 30
0.0
 10
83.044140
 20
16.304648
 30
0.0
 10
83.433209
 20
14.062062
 30
0.0
 10
83.718933
 20
11.887709
 30
0.0
 10
83.855794
 20
9.807929
 30
0.0
 10
83.798300
 20
7.849138
 30
0.0
 10
83.500931
 20
6.037666
 30
0.0
 10
82.918181
 20
4.399874
 30
0.0
 10
82.004555
 20
2.962206
 30
0.0
 10
80.714537
 20
1.750908
 30
0.0
  0
ENDSEC
  0
SECTION
  2
OBJECTS
  0
DICTIONARY
  5
C
330
0
100
AcDbDictionary
  3
ACAD_GROUP
350
D
  3
ACAD_MLINESTYLE
350
17
  0
DICTIONARY
  5
D
330
C
100
AcDbDictionary
  0
DICTIONARY
  5
1A
330
C
100
AcDbDictionary
  0
DICTIONARY
  5
17
330
C
100
AcDbDictionary
  3
STANDARD
350
18
  0
DICTIONARY
  5
19
330
C
100
AcDbDictionary
  0
ENDSEC
  0
EOF
