  0
SECTION
  2
HEADER
  9
$ACADVER
  1
AC1014
  9
$HANDSEED
  5
FFFF
  9
$MEASUREMENT
 70
     1
  0
ENDSEC
  0
SECTION
  2
TABLES
  0
TABLE
  2
VPORT
  5
8
330
0
100
AcDbSymbolTable
 70
     4
  0
VPORT
  5
2E
330
8
100
AcDbSymbolTableRecord
100
AcDbViewportTableRecord
  2
*ACTIVE
 70
     0
 10
0.0
 20
0.0
 11
1.0
 21
1.0
 12
210.0
 22
148.5
 13
0.0
 23
0.0
 14
10.0
 24
10.0
 15
10.0
 25
10.0
 16
0.0
 26
0.0
 36
1.0
 17
0.0
 27
0.0
 37
0.0
 40
341.0
 41
1.24
 42
50.0
 43
0.0
 44
0.0
 50
0.0
 51
0.0
 71
     0
 72
   100
 73
     1
 74
     3
 75
     0
 76
     0
 77
     0
 78
     0
  0
ENDTAB
  0
TABLE
  2
LTYPE
  5
5
330
0
100
AcDbSymbolTable
 70
     1
  0
LTYPE
  5
14
330
5
100
AcDbSymbolTableRecord
100
AcDbLinetypeTableRecord
  2
BYBLOCK
 70
     0
  3

 72
    65
 73
     0
 40
0.0
  0
LTYPE
  5
15
330
5
100
AcDbSymbolTableRecord
100
AcDbLinetypeTableRecord
  2
BYLAYER
 70
     0
  3

 72
    65
 73
     0
 40
0.0
  0
LTYPE
  5
16
330
5
100
AcDbSymbolTableRecord
100
AcDbLinetypeTableRecord
  2
CONTINUOUS
 70
     0
  3
Solid line
 72
    65
 73
     0
 40
0.0
  0
ENDTAB
  0
TABLE
  2
LAYER
  5
2
100
AcDbSymbolTable
 70
2
  0
LAYER
  5
50
100
AcDbSymbolTableRecord
100
AcDbLayerTableRecord
  2
0
 70
0
  6
CONTINUOUS
  0
LAYER
  5
51
100
AcDbSymbolTableRecord
100
AcDbLayerTableRecord
  2
Layer_1
 70
0
  6
CONTINUOUS
  0
ENDTAB
  0
TABLE
  2
STYLE
  5
3
330
0
100
AcDbSymbolTable
 70
     1
  0
STYLE
  5
11
330
3
100
AcDbSymbolTableRecord
100
AcDbTextStyleTableRecord
  2
STANDARD
 70
     0
 40
0.0
 41
1.0
 50
0.0
 71
     0
 42
2.5
  3
txt
  4

  0
ENDTAB
  0
TABLE
  2
VIEW
  5
6
330
0
100
AcDbSymbolTable
 70
     0
  0
ENDTAB
  0
TABLE
  2
UCS
  5
7
330
0
100
AcDbSymbolTable
 70
     0
  0
ENDTAB
  0
TABLE
  2
APPID
  5
9
330
0
100
AcDbSymbolTable
 70
     2
  0
APPID
  5
12
330
9
100
AcDbSymbolTableRecord
100
AcDbRegAppTableRecord
  2
ACAD
 70
     0
  0
ENDTAB
  0
TABLE
  2
DIMSTYLE
  5
A
330
0
100
AcDbSymbolTable
 70
     1
  0
DIMSTYLE
105
27
330
A
100
AcDbSymbolTableRecord
100
AcDbDimStyleTableRecord
  2
ISO-25
 70
     0
  3

  4

  5

  6

  7

 40
1.0
 41
2.5
 42
0.625
 43
3.75
 44
1.25
 45
0.0
 46
0.0
 47
0.0
 48
0.0
140
2.5
141
2.5
142
0.0
143
0.03937007874016
144
1.0
145
0.0
146
1.0
147
0.625
 71
     0
 72
     0
 73
     0
 74
     0
 75
     0
 76
     0
 77
     1
 78
     8
170
     0
171
     3
172
     1
173
     0
174
     0
175
     0
176
     0
177
     0
178
     0
270
     2
271
     2
272
     2
273
     2
274
     3
340
11
275
     0
280
     0
281
     0
282
     0
283
     0
284
     8
285
     0
286
     0
287
     3
288
     0
  0
ENDTAB
  0
TABLE
  2
BLOCK_RECORD
  5
1
330
0
100
AcDbSymbolTable
 70
     1
  0
BLOCK_RECORD
  5
1F
330
1
100
AcDbSymbolTableRecord
100
AcDbBlockTableRecord
  2
*MODEL_SPACE
  0
BLOCK_RECORD
  5
1B
330
1
100
AcDbSymbolTableRecord
100
AcDbBlockTableRecord
  2
*PAPER_SPACE
  0
ENDTAB
  0
ENDSEC
  0
SECTION
  2
BLOCKS
  0
BLOCK
  5
20
330
1F
100
AcDbEntity
  8
0
100
AcDbBlockBegin
  2
*MODEL_SPACE
 70
     0
 10
0.0
 20
0.0
 30
0.0
  3
*MODEL_SPACE
  1

  0
ENDBLK
  5
21
330
1F
100
AcDbEntity
  8
0
100
AcDbBlockEnd
  0
BLOCK
  5
1C
330
1B
100
AcDbEntity
 67
     1
  8
0
100
AcDbBlockBegin
  2
*PAPER_SPACE
  1

  0
ENDBLK
  5
1D
330
1B
100
AcDbEntity
 67
     1
  8
0
100
AcDbBlockEnd
  0
ENDSEC
  0
SECTION
  2
ENTITIES
  0
LWPOLYLINE
  5
100
100
AcDbEntity
  8
Layer_1
 62
7
100
AcDbPolyline
 90
161
 70
0
 10
83.419137
 20
4.589471
 30
0.0
 10
81.916456
 20
3.654977
 30
0.0
 10
80.291934
 20
3.142518
 30
0.0
 10
78.559321
 20
3.001294
 30
0.0
 10
76.732378
 20
3.180561
 30
0.0
 10
74.824861
 20
3.629548
 30
0.0
 10
72.850530
 20
4.297512
 30
0.0
 10
70.823133
 20
5.133652
 30
0.0
 10
68.756434
 20
6.087252
 30
0.0
 10
66.664185
 20
7.107542
 30
0.0
 10
64.560145
 20
8.143721
 30
0.0
 10
62.458067
 20
9.145017
 30
0.0
 10
60.371711
 20
10.060716
 30
0.0
 10
58.314830
 20
10.840044
 30
0.0
 10
56.301186
 20
11.432203
 30
0.0
 10
54.344528
 20
11.786476
 30
0.0
 10
52.458617
 20
11.852065
 30
0.0
 10
50.589592
 20
11.591884
 30
0.0
 10
48.680040
 20
11.037233
 30
0.0
 10
46.738399
 20
10.240096
 30
0.0
 10
44.773099
 20
9.252318
 30
0.0
 10
42.792579
 20
8.125856
 30
0.0
 10
40.805275
 20
6.912583
 30
0.0
 10
38.819619
 20
5.664455
 30
0.0
 10
36.844049
 20
4.433374
 30
0.0
 10
34.886996
 20
3.271267
 30
0.0
 10
32.956901
 20
2.229980
 30
0.0
 10
31.062193
 20
1.361526
 30
0.0
 10
29.211310
 20
0.717749
 30
0.0
 10
27.412687
 20
0.350578
 30
0.0
 10
25.674761
 20
0.311942
 30
0.0
 10
24.005961
 20
0.653713
 30
0.0
 10
22.414730
 20
1.427876
 30
0.0
 10
21.061622
 20
2.568224
 30
0.0
 10
20.072225
 20
3.954894
 30
0.0
 10
19.402509
 20
5.559045
 30
0.0
 10
19.008448
 20
7.351975
 30
0.0
 10
18.846014
 20
9.304896
 30
0.0
 10
18.871177
 20
11.388994
 30
0.0
 10
19.039910
 20
13.575539
 30
0.0
 10
19.308185
 20
15.835778
 30
0.0
 10
19.631973
 20
18.140901
 30
0.0
 10
19.967248
 20
20.462159
 30
0.0
 10
20.269981
 20
22.770777
 30
0.0
 10
20.496142
 20
25.037986
 30
0.0
 10
20.601706
 20
27.235016
 30
0.0
 10
20.542644
 20
29.333101
 30
0.0
 10
20.274928
 20
31.303464
 30
0.0
 10
19.754529
 20
33.117340
 30
0.0
 10
18.929511
 20
34.814486
 30
0.0
 10
17.811940
 20
36.459187
 30
0.0
 10
16.453798
 20
38.059463
 30
0.0
 10
14.907062
 20
39.623335
 30
0.0
 10
13.223712
 20
41.158822
 30
0.0
 10
11.455728
 20
42.673946
 30
0.0
 10
9.655089
 20
44.176726
 30
0.0
 10
7.873775
 20
45.675179
 30
0.0
 10
6.163764
 20
47.177329
 30
0.0
 10
4.577037
 20
48.691192
 30
0.0
 10
3.165572
 20
50.224796
 30
0.0
 10
1.981349
 20
51.786151
 30
0.0
 10
1.076347
 20
53.383283
 30
0.0
 10
0.502546
 20
55.024208
 30
0.0
 10
0.311925
 20
56.716948
 30
0.0
 10
0.556464
 20
58.469526
 30
0.0
 10
1.222878
 20
60.108797
 30
0.0
 10
2.235922
 20
61.478269
 30
0.0
 10
3.554627
 20
62.610922
 30
0.0
 10
5.138025
 20
63.539738
 30
0.0
 10
6.945152
 20
64.297702
 30
0.0
 10
8.935037
 20
64.917798
 30
0.0
 10
11.066715
 20
65.433006
 30
0.0
 10
13.299219
 20
65.876310
 30
0.0
 10
15.591582
 20
66.280692
 30
0.0
 10
17.902833
 20
66.679133
 30
0.0
 10
20.192010
 20
67.104620
 30
0.0
 10
22.418143
 20
67.590132
 30
0.0
 10
24.540265
 20
68.168654
 30
0.0
 10
26.517408
 20
68.873168
 30
0.0
 10
28.308608
 20
69.736661
 30
0.0
 10
29.872892
 20
70.792107
 30
0.0
 10
31.232029
 20
72.101192
 30
0.0
 10
32.450885
 20
73.672303
 30
0.0
 10
33.553149
 20
75.458488
 30
0.0
 10
34.562514
 20
77.412784
 30
0.0
 10
35.502667
 20
79.488237
 30
0.0
 10
36.397294
 20
81.637890
 30
0.0
 10
37.270097
 20
83.814783
 30
0.0
 10
38.144755
 20
85.971960
 30
0.0
 10
39.044962
 20
88.062467
 30
0.0
 10
39.994405
 20
90.039344
 30
0.0
 10
41.016781
 20
91.855636
 30
0.0
 10
42.135772
 20
93.464384
 30
0.0
 10
43.375072
 20
94.818633
 30
0.0
 10
44.758370
 20
95.871424
 30
0.0
 10
46.309359
 20
96.575802
 30
0.0
 10
48.051723
 20
96.884807
 30
0.0
 10
49.816698
 20
96.757570
 30
0.0
 10
51.432192
 20
96.217301
 30
0.0
 10
52.916912
 20
95.313146
 30
0.0
 10
54.289565
 20
94.094265
 30
0.0
 10
55.568867
 20
92.609810
 30
0.0
 10
56.773518
 20
90.908938
 30
0.0
 10
57.922236
 20
89.040799
 30
0.0
 10
59.033723
 20
87.054550
 30
0.0
 10
60.126691
 20
84.999343
 30
0.0
 10
61.219850
 20
82.924338
 30
0.0
 10
62.331908
 20
80.878684
 30
0.0
 10
63.481568
 20
78.911539
 30
0.0
 10
64.687546
 20
77.072057
 30
0.0
 10
65.968553
 20
75.409387
 30
0.0
 10
67.343291
 20
73.972689
 30
0.0
 10
68.830472
 20
72.811116
 30
0.0
 10
70.495482
 20
71.923031
 30
0.0
 10
72.366347
 20
71.249330
 30
0.0
 10
74.405727
 20
70.752974
 30
0.0
 10
76.576281
 20
70.396923
 30
0.0
 10
78.840677
 20
70.144136
 30
0.0
 10
81.161574
 20
69.957568
 30
0.0
 10
83.501634
 20
69.800183
 30
0.0
 10
85.823515
 20
69.634940
 30
0.0
 10
88.089884
 20
69.424794
 30
0.0
 10
90.263401
 20
69.132705
 30
0.0
 10
92.306730
 20
68.721635
 30
0.0
 10
94.182528
 20
68.154540
 30
0.0
 10
95.853459
 20
67.394383
 30
0.0
 10
97.282186
 20
66.404119
 30
0.0
 10
98.431370
 20
65.146706
 30
0.0
 10
99.263674
 20
63.585108
 30
0.0
 10
99.688074
 20
61.867199
 30
0.0
 10
99.673455
 20
60.163821
 30
0.0
 10
99.272358
 20
58.472370
 30
0.0
 10
98.537308
 20
56.790241
 30
0.0
 10
97.520831
 20
55.114835
 30
0.0
 10
96.275463
 20
53.443543
 30
0.0
 10
94.853729
 20
51.773761
 30
0.0
 10
93.308162
 20
50.102887
 30
0.0
 10
91.691293
 20
48.428321
 30
0.0
 10
90.055649
 20
46.747454
 30
0.0
 10
88.453762
 20
45.057685
 30
0.0
 10
86.938160
 20
43.356407
 30
0.0
 10
85.561373
 20
41.641021
 30
0.0
 10
84.375933
 20
39.908922
 30
0.0
 10
83.434369
 20
38.157501
 30
0.0
 10
82.789212
 20
36.384164
 30
0.0
 10
82.459108
 20
34.526210
 30
0.0
 10
82.396511
 20
32.538728
 30
0.0
 10
82.554651
 20
30.445782
 30
0.0
 10
82.886767
 20
28.271435
 30
0.0
 10
83.346087
 20
26.039751
 30
0.0
 10
83.885851
 20
23.774794
 30
0.0
 10
84.459287
 20
21.500633
 30
0.0
 10
85.019631
 20
19.241325
 30
0.0
 10
85.520118
 20
17.020942
 30
0.0
 10
85.913982
 20
14.863548
 30
0.0
 10
86.154452
 20
12.793191
 30
0.0
 10
86.194767
 20
10.833976
 30
0.0
 10
85.988158
 20
9.009918
 30
0.0
 10
85.487860
 20
7.345089
 30
0.0
 10
84.647109
 20
5.863620
 30
0.0
 10
83.419137
 20
4.589471
 30
0.0
  0
ENDSEC
  0
SECTION
  2
OBJECTS
  0
DICTIONARY
  5
C
330
0
100
AcDbDictionary
  3
ACAD_GROUP
350
D
  3
ACAD_MLINESTYLE
350
17
  0
DICTIONARY
  5
D
330
C
100
AcDbDictionary
  0
DICTIONARY
  5
1A
330
C
100
AcDbDictionary
  0
DICTIONARY
  5
17
330
C
100
AcDbDictionary
  3
STANDARD
350
18
  0
DICTIONARY
  5
19
330
C
100
AcDbDictionary
  0
ENDSEC
  0
EOF
